<?xml version="1.0" encoding="utf-8"?>
<!-- Generator: Adobe Illustrator 24.3.0, SVG Export Plug-In . SVG Version: 6.00 Build 0)  -->
<svg version="1.1" id="Capa_1" xmlns="http://www.w3.org/2000/svg" xmlns:xlink="http://www.w3.org/1999/xlink" x="0px" y="0px"
	 viewBox="0 0 243.42 121.04" style="enable-background:new 0 0 243.42 121.04;" xml:space="preserve">
<style type="text/css">
	.st0{fill:#FFDD00;}
	.st1{fill:#1D1D1B;}
</style>
<g>
	<g>
		<g>
			<path class="st0" d="M156.97,53.93c6-0.35,6.53-3.35,6.53-5.83c0-2.03-0.18-4.33-0.44-6.71c-0.27-2.3-0.44-4.68-0.44-6.8
				c0-8.39,5.12-12.01,13.69-12.01h3.71v8.65h-1.59c-3.44,0-4.68,2.21-4.68,5.65c0,1.32,0.18,2.74,0.35,4.42
				c0.18,1.68,0.35,3.62,0.35,5.83c0.09,7.06-2.65,9.54-8.04,10.6v0.18c5.3,1.06,8.12,3.44,8.04,10.51c0,2.3-0.18,4.24-0.35,5.92
				c-0.18,1.68-0.35,3.09-0.35,4.42c0,3.44,1.06,5.65,4.68,5.74h1.59v8.56h-3.71c-8.21,0-13.69-3.27-13.69-12.01
				c0-2.12,0.18-4.41,0.53-6.8c0.18-2.38,0.35-4.68,0.35-6.71c0-2.38-0.53-5.48-6.53-5.83V53.93z"/>
		</g>
		<g>
			<path class="st0" d="M224.86,61.7c-6,0.35-6.53,3.35-6.53,5.83c0,2.03,0.18,4.33,0.44,6.71c0.27,2.3,0.44,4.68,0.44,6.8
				c0,8.39-5.12,12.01-13.69,12.01h-3.71v-8.65h1.59c3.44,0,4.68-2.21,4.68-5.65c0-1.32-0.18-2.74-0.35-4.42
				c-0.18-1.68-0.35-3.62-0.35-5.83c-0.09-7.06,2.65-9.54,8.04-10.6v-0.18c-5.3-1.06-8.12-3.44-8.04-10.51
				c0-2.3,0.18-4.24,0.35-5.92c0.18-1.68,0.35-3.09,0.35-4.42c0-3.44-1.06-5.65-4.68-5.74h-1.59v-8.56h3.71
				c8.21,0,13.69,3.27,13.69,12.01c0,2.12-0.18,4.41-0.53,6.8c-0.18,2.38-0.35,4.68-0.35,6.71c0,2.38,0.53,5.48,6.53,5.83V61.7z"/>
		</g>
		<path class="st1" d="M200.66,93.05h-20.68c-2.37,0-4.28-1.92-4.28-4.28v0c0-2.37,1.92-4.28,4.28-4.28h20.68
			c2.37,0,4.28,1.92,4.28,4.28v0C204.94,91.13,203.02,93.05,200.66,93.05z"/>
		<path class="st1" d="M198.31,103.79h-14.79c-1.93,0-3.5-1.57-3.5-3.5v-0.1c0-1.93,1.57-3.5,3.5-3.5h14.79c1.93,0,3.5,1.57,3.5,3.5
			v0.1C201.81,102.22,200.24,103.79,198.31,103.79z"/>
		<path class="st1" d="M193.86,112.64h-6.55c-1.56,0-2.82-1.26-2.82-2.82v0c0-1.56,1.26-2.82,2.82-2.82h6.55
			c1.56,0,2.82,1.26,2.82,2.82v0C196.68,111.38,195.42,112.64,193.86,112.64z"/>
		<g>
			<path class="st1" d="M180.38,76.11c-0.12-0.11-0.17-0.25-0.17-0.42V42.32c0-0.16,0.06-0.3,0.17-0.42
				c0.12-0.11,0.25-0.17,0.42-0.17h10.61c2.2,0,4.15,0.41,5.85,1.23c1.7,0.82,3,1.99,3.92,3.5c0.92,1.51,1.38,3.27,1.38,5.28v14.51
				c0,2.01-0.46,3.77-1.38,5.28c-0.92,1.51-2.23,2.68-3.92,3.5c-1.7,0.82-3.64,1.23-5.85,1.23H180.8
				C180.64,76.28,180.5,76.23,180.38,76.11z M187.42,70.31l4.05-0.05c1.22,0,2.2-0.44,2.96-1.31c0.76-0.87,1.15-2.03,1.18-3.48
				V52.54c0-1.48-0.38-2.66-1.14-3.53c-0.76-0.87-1.76-1.31-3.01-1.31h-4.05c-0.17,0-0.25,0.08-0.25,0.25v22.11
				C187.17,70.23,187.25,70.31,187.42,70.31z"/>
		</g>
		<g>
			<g>
				<path class="st1" d="M28.01,56.83c-1.71-0.81-3.04-1.94-3.97-3.41c-0.94-1.46-1.41-3.15-1.41-5.06v-1.28
					c0-0.16,0.06-0.3,0.17-0.42c0.11-0.11,0.25-0.17,0.42-0.17h5.68c0.16,0,0.3,0.06,0.42,0.17c0.12,0.12,0.17,0.26,0.17,0.42v0.94
					c0,1.15,0.43,2.11,1.28,2.89c0.86,0.77,2.01,1.16,3.46,1.16c1.28,0,2.26-0.33,2.94-0.99c0.67-0.66,1.01-1.5,1.01-2.52
					c0-0.76-0.21-1.41-0.64-1.95c-0.43-0.54-1.03-1.05-1.8-1.53c-0.77-0.48-1.97-1.13-3.58-1.95c-1.97-0.99-3.59-1.91-4.84-2.76
					c-1.25-0.86-2.32-1.96-3.21-3.31c-0.89-1.35-1.33-2.98-1.33-4.89c0-1.91,0.45-3.58,1.36-5.01c0.9-1.43,2.18-2.53,3.83-3.31
					c1.65-0.77,3.52-1.16,5.63-1.16c2.2,0,4.16,0.42,5.87,1.26c1.71,0.84,3.04,2.02,4,3.53c0.95,1.51,1.43,3.26,1.43,5.23v0.99
					c0,0.17-0.06,0.3-0.17,0.42c-0.12,0.12-0.26,0.17-0.42,0.17h-5.68c-0.17,0-0.3-0.06-0.42-0.17c-0.12-0.11-0.17-0.25-0.17-0.42
					v-0.89c0-1.18-0.41-2.17-1.23-2.96c-0.82-0.79-1.94-1.19-3.36-1.19c-1.18,0-2.11,0.3-2.79,0.91c-0.67,0.61-1.01,1.46-1.01,2.54
					c0,0.76,0.2,1.42,0.59,1.97c0.39,0.56,1,1.09,1.83,1.6c0.82,0.51,2.07,1.18,3.75,2l1.04,0.59c1.91,1.05,3.4,1.97,4.47,2.74
					c1.07,0.77,1.97,1.75,2.69,2.94c0.72,1.18,1.09,2.62,1.09,4.29c0,3-1.01,5.37-3.04,7.13c-2.02,1.76-4.71,2.64-8.07,2.64
					C31.71,58.04,29.72,57.63,28.01,56.83z"/>
				<path class="st1" d="M49.73,28.3c-0.72-0.74-1.09-1.67-1.09-2.79c0-1.15,0.35-2.09,1.06-2.81c0.71-0.72,1.64-1.09,2.79-1.09
					c1.15,0,2.09,0.36,2.81,1.09c0.72,0.72,1.09,1.66,1.09,2.81c0,1.12-0.37,2.05-1.11,2.79c-0.74,0.74-1.67,1.11-2.79,1.11
					C51.38,29.41,50.45,29.04,49.73,28.3z M49.21,57.47c-0.12-0.11-0.17-0.25-0.17-0.42V32.86c0-0.16,0.06-0.3,0.17-0.42
					c0.12-0.11,0.25-0.17,0.42-0.17h5.78c0.16,0,0.3,0.06,0.42,0.17C55.94,32.56,56,32.7,56,32.86v24.19c0,0.17-0.06,0.3-0.17,0.42
					c-0.12,0.12-0.26,0.17-0.42,0.17h-5.78C49.47,57.64,49.33,57.58,49.21,57.47z"/>
				<path class="st1" d="M81.13,44.71l-0.05,1.93c0,0.4-0.2,0.59-0.59,0.59H67.4c-0.17,0-0.25,0.08-0.25,0.25
					c0.07,0.76,0.13,1.32,0.2,1.68c0.16,0.92,0.57,1.65,1.21,2.17c0.64,0.53,1.44,0.79,2.39,0.79c1.61-0.03,2.73-0.77,3.36-2.22
					c0.16-0.33,0.41-0.46,0.74-0.4l5.23,1.04c0.4,0.1,0.53,0.35,0.4,0.74c-0.72,2.17-1.92,3.84-3.58,5.01
					c-1.66,1.17-3.71,1.75-6.15,1.75c-2.93,0-5.26-0.67-6.98-2c-1.73-1.33-2.85-3.25-3.38-5.75c-0.3-1.35-0.44-3.41-0.44-6.17
					c0-1.58,0.1-2.91,0.3-4c0.36-2.5,1.45-4.5,3.26-6c1.81-1.5,4.1-2.25,6.86-2.25c2.99,0,5.43,0.85,7.31,2.54
					c1.88,1.7,2.91,3.92,3.11,6.69C81.08,42.19,81.13,43.39,81.13,44.71z M68.41,38.64c-0.58,0.53-0.95,1.25-1.11,2.17
					c-0.1,0.59-0.15,1.22-0.15,1.88c0,0.17,0.08,0.25,0.25,0.25h6.42c0.16,0,0.25-0.08,0.25-0.25c0-0.66-0.05-1.28-0.15-1.88
					c-0.13-0.89-0.49-1.6-1.09-2.15s-1.33-0.81-2.22-0.81C69.72,37.85,68.99,38.11,68.41,38.64z"/>
				<path class="st1" d="M99.34,32.52c0.26,0.17,0.36,0.43,0.3,0.79l-0.99,5.68c-0.03,0.4-0.26,0.51-0.69,0.35
					c-0.53-0.13-1-0.2-1.43-0.2c-0.4,0-0.82,0.05-1.28,0.15c-0.95,0.13-1.76,0.59-2.42,1.38c-0.66,0.79-0.99,1.74-0.99,2.86v13.53
					c0,0.17-0.06,0.3-0.17,0.42c-0.12,0.12-0.26,0.17-0.42,0.17h-5.78c-0.17,0-0.3-0.06-0.42-0.17c-0.12-0.11-0.17-0.25-0.17-0.42
					V32.86c0-0.16,0.06-0.3,0.17-0.42c0.11-0.11,0.25-0.17,0.42-0.17h5.78c0.16,0,0.3,0.06,0.42,0.17c0.11,0.12,0.17,0.26,0.17,0.42
					v1.97c0,0.13,0.02,0.21,0.07,0.22c0.05,0.02,0.11-0.02,0.17-0.12c1.15-2.01,2.76-3.01,4.84-3.01
					C97.81,31.92,98.62,32.12,99.34,32.52z"/>
				<path class="st1" d="M116.81,32.52c0.26,0.17,0.36,0.43,0.3,0.79l-0.99,5.68c-0.03,0.4-0.26,0.51-0.69,0.35
					c-0.53-0.13-1-0.2-1.43-0.2c-0.4,0-0.82,0.05-1.28,0.15c-0.95,0.13-1.76,0.59-2.42,1.38c-0.66,0.79-0.99,1.74-0.99,2.86v13.53
					c0,0.17-0.06,0.3-0.17,0.42c-0.12,0.12-0.26,0.17-0.42,0.17h-5.78c-0.17,0-0.3-0.06-0.42-0.17c-0.12-0.11-0.17-0.25-0.17-0.42
					V32.86c0-0.16,0.06-0.3,0.17-0.42c0.11-0.11,0.25-0.17,0.42-0.17h5.78c0.16,0,0.3,0.06,0.42,0.17c0.11,0.12,0.17,0.26,0.17,0.42
					v1.97c0,0.13,0.02,0.21,0.07,0.22c0.05,0.02,0.11-0.02,0.17-0.12c1.15-2.01,2.76-3.01,4.84-3.01
					C115.28,31.92,116.09,32.12,116.81,32.52z"/>
				<path class="st1" d="M134.53,32.94c1.55,0.71,2.76,1.7,3.63,2.96c0.87,1.27,1.31,2.71,1.31,4.32v16.83
					c0,0.17-0.06,0.3-0.17,0.42c-0.12,0.12-0.26,0.17-0.42,0.17h-5.78c-0.17,0-0.3-0.06-0.42-0.17c-0.12-0.11-0.17-0.25-0.17-0.42
					v-1.38c0-0.1-0.03-0.16-0.1-0.2c-0.07-0.03-0.13,0-0.2,0.1c-1.25,1.65-3.19,2.47-5.83,2.47c-2.24,0-4.11-0.58-5.6-1.73
					c-1.5-1.15-2.25-3.08-2.25-5.78c0-5.36,3.36-8.05,10.07-8.05h3.65c0.16,0,0.25-0.08,0.25-0.25V41.1c0-0.99-0.29-1.78-0.86-2.37
					c-0.58-0.59-1.36-0.89-2.34-0.89c-0.79,0-1.45,0.18-1.97,0.54c-0.53,0.36-0.86,0.86-0.99,1.48c-0.1,0.33-0.33,0.49-0.69,0.49
					l-5.97-0.35c-0.17,0-0.3-0.05-0.42-0.15c-0.12-0.1-0.16-0.23-0.12-0.4c0.2-2.27,1.23-4.1,3.09-5.5c1.86-1.4,4.2-2.1,7.03-2.1
					C131.23,31.87,132.99,32.23,134.53,32.94z M131.33,51.82c0.79-0.62,1.18-1.45,1.18-2.47v-2.07c0-0.16-0.08-0.25-0.25-0.25h-2.76
					c-1.22,0-2.17,0.26-2.86,0.79c-0.69,0.53-1.04,1.28-1.04,2.27c0,0.86,0.26,1.51,0.79,1.97c0.53,0.46,1.22,0.69,2.07,0.69
					C129.58,52.75,130.54,52.44,131.33,51.82z"/>
				<path class="st0" d="M145.1,40.96c-0.82-0.82-1.23-1.84-1.23-3.06c0-1.15,0.44-2.15,1.33-2.99c0.89-0.84,1.89-1.26,3.01-1.26
					c1.12,0,2.12,0.42,3.01,1.26c0.89,0.84,1.33,1.83,1.33,2.99c0,1.18-0.41,2.2-1.23,3.04c-0.82,0.84-1.86,1.26-3.11,1.26
					C146.96,42.19,145.92,41.78,145.1,40.96z M144.28,62.26c-0.12-0.12-0.16-0.27-0.12-0.47l1.04-11.3
					c0.07-0.36,0.26-0.54,0.59-0.54h5.04c0.46,0,0.64,0.21,0.54,0.64l-2.52,11.3c-0.07,0.36-0.28,0.54-0.64,0.54h-3.46
					C144.56,62.43,144.4,62.37,144.28,62.26z"/>
			</g>
		</g>
		<g>
			<path class="st1" d="M42.25,63.89h17.51v3.23H45.88v10.44h13.01v3.23H45.88v13.67h-3.62V63.89z"/>
			<path class="st1" d="M64.04,94.46v-2.93h5.9V75.55h-5.9v-2.93h8.17l0.7,2.84h0.22c0.99-0.9,2.1-1.67,3.32-2.31
				c1.22-0.64,2.68-0.96,4.37-0.96c0.99,0,1.78,0.19,2.38,0.57c0.6,0.38,1.06,0.93,1.4,1.66c0.33,0.73,0.56,1.61,0.68,2.64
				c0.12,1.03,0.17,2.21,0.17,3.52l-3.06,0.04c0-1.85-0.18-3.21-0.55-4.07c-0.36-0.87-1.03-1.3-1.99-1.3c-0.9,0-1.72,0.13-2.45,0.39
				c-0.73,0.26-1.36,0.58-1.9,0.96c-0.54,0.38-1,0.75-1.38,1.13c-0.38,0.38-0.66,0.7-0.83,0.96v12.85h8.38v2.93H64.04z"/>
			<path class="st1" d="M87.66,83.55c0-3.52,0.92-6.31,2.75-8.36c1.83-2.05,4.45-3.08,7.86-3.08c1.83,0,3.41,0.3,4.74,0.9
				c1.32,0.6,2.42,1.4,3.3,2.42c0.87,1.02,1.52,2.23,1.94,3.62c0.42,1.4,0.63,2.9,0.63,4.5c0,1.75-0.23,3.33-0.7,4.74
				c-0.47,1.41-1.15,2.61-2.05,3.6s-2.02,1.75-3.34,2.29c-1.33,0.54-2.83,0.81-4.52,0.81c-1.81,0-3.38-0.3-4.72-0.9
				c-1.34-0.6-2.45-1.4-3.32-2.42c-0.87-1.02-1.52-2.23-1.94-3.62C87.87,86.65,87.66,85.15,87.66,83.55z M91.29,83.55
				c0,1.02,0.12,2.04,0.37,3.06c0.25,1.02,0.65,1.94,1.2,2.75c0.55,0.82,1.27,1.47,2.15,1.96c0.88,0.5,1.97,0.74,3.24,0.74
				c2.32,0,4.07-0.72,5.25-2.16c1.17-1.44,1.76-3.56,1.76-6.35c0-1.05-0.12-2.07-0.37-3.08s-0.65-1.91-1.22-2.73
				c-0.57-0.81-1.29-1.47-2.18-1.96c-0.89-0.49-1.97-0.74-3.24-0.74c-2.32,0-4.06,0.71-5.22,2.14
				C91.87,78.6,91.29,80.72,91.29,83.55z"/>
			<path class="st1" d="M113.25,80.27c0-0.26-0.01-0.6-0.02-1.03c-0.01-0.42-0.04-0.86-0.07-1.31c-0.03-0.45-0.07-0.9-0.11-1.33
				c-0.04-0.44-0.1-0.81-0.15-1.14h-2.93v-2.84h5.85l0.39,3.54h0.22c0.29-0.49,0.68-0.98,1.16-1.46c0.48-0.48,1.04-0.92,1.68-1.31
				c0.64-0.39,1.35-0.71,2.14-0.94c0.79-0.23,1.62-0.35,2.49-0.35c1.34,0,2.52,0.15,3.56,0.44c1.03,0.29,1.89,0.81,2.58,1.55
				c0.68,0.74,1.2,1.75,1.55,3.01c0.35,1.27,0.52,2.88,0.52,4.83v12.53h-3.45V82.61c0-2.41-0.39-4.23-1.17-5.45
				c-0.78-1.22-2.2-1.83-4.26-1.83c-0.75,0-1.49,0.15-2.2,0.46c-0.71,0.31-1.36,0.7-1.94,1.2s-1.09,1.07-1.52,1.72
				c-0.44,0.65-0.75,1.34-0.96,2.07v13.68h-3.36V80.27z"/>
			<path class="st1" d="M134.56,72.63h5.2V68.3l3.45-0.96v5.28h11.66v2.93h-11.66v10.31c0,2.13,0.51,3.7,1.54,4.72
				s2.5,1.53,4.42,1.53c1.31,0,2.44-0.25,3.42-0.74c0.97-0.49,1.85-1.03,2.63-1.62l1.13,2.58c-1.02,0.82-2.23,1.47-3.65,1.96
				s-2.86,0.74-4.34,0.74c-1.16,0-2.26-0.17-3.3-0.5c-1.03-0.33-1.94-0.85-2.73-1.55c-0.79-0.7-1.41-1.59-1.88-2.69
				c-0.47-1.09-0.7-2.39-0.7-3.91V75.55h-5.2V72.63z"/>
		</g>
	</g>
</g>
</svg>
