<?xml version="1.0" encoding="utf-8"?>
<!-- Generator: Adobe Illustrator 22.0.1, SVG Export Plug-In . SVG Version: 6.00 Build 0)  -->
<svg version="1.1" id="Capa_1" xmlns="http://www.w3.org/2000/svg" xmlns:xlink="http://www.w3.org/1999/xlink" x="0px" y="0px"
	 viewBox="0 0 300.5 163.4" style="enable-background:new 0 0 300.5 163.4;" xml:space="preserve">
<style type="text/css">
	.st0{fill:#222220;}
</style>
<g>
	<g>
		<path class="st0" d="M223.1,27.4c-11.3,0-18.1,4.8-18.1,15.9c0,2.8,0.2,5.9,0.6,9c0.4,3.2,0.6,6.2,0.6,8.9c0,3.3-0.7,7.2-8.6,7.7
			v10.3c7.9,0.5,8.6,4.6,8.6,7.7c0,2.7-0.2,5.7-0.5,8.9c-0.5,3.2-0.7,6.2-0.7,9c0,11.5,7.2,15.9,18.1,15.9h0.6
			c-1.7-1.3-2.8-3.3-2.8-5.7c0-2.4,1.2-4.6,3.1-5.9c-3.3-0.8-4.3-3.5-4.3-7.4c0-1.7,0.2-3.6,0.5-5.8c0.2-2.2,0.5-4.8,0.5-7.8
			c0.1-9.3-3.6-12.5-10.6-13.9v-0.2c7.1-1.4,10.7-4.7,10.6-14c0-2.9-0.2-5.5-0.5-7.7c-0.2-2.2-0.5-4.1-0.5-5.8
			c0-4.6,1.6-7.5,6.2-7.5h2.1V27.4H223.1z"/>
	</g>
	<g>
		<path class="st0" d="M278.6,61.1c0-2.7,0.2-5.7,0.5-8.9c0.5-3.2,0.7-6.2,0.7-9c0-11.5-7.2-15.9-18.1-15.9h-4.9v11.3h2.1
			c4.8,0.1,6.2,3,6.2,7.6c0,1.7-0.2,3.6-0.5,5.8c-0.2,2.2-0.5,4.8-0.5,7.8c-0.1,9.3,3.6,12.5,10.6,13.9v0.2
			c-7.1,1.4-10.7,4.7-10.6,14c0,2.9,0.2,5.5,0.5,7.7c0.2,2.2,0.5,4.1,0.5,5.8c0,4.4-1.5,7.3-5.7,7.5c1.8,1.3,3,3.4,3,5.8
			c0,2.3-1.1,4.3-2.8,5.7h2.1c11.3,0,18.1-4.8,18.1-15.9c0-2.8-0.2-6-0.6-9c-0.4-3.1-0.6-6.2-0.6-8.9c0-3.3,0.7-7.2,8.6-7.7V68.8
			C279.3,68.4,278.6,64.3,278.6,61.1z"/>
	</g>
	<path class="st0" d="M255.2,120.5h-27.3c-3.1,0-5.7-2.5-5.7-5.7v0c0-3.1,2.5-5.7,5.7-5.7h27.3c3.1,0,5.7,2.5,5.7,5.7v0
		C260.9,118,258.4,120.5,255.2,120.5z"/>
	<path class="st0" d="M252.1,134.7h-19.4c-2.6,0-4.7-2.1-4.7-4.7v0c0-2.6,2.1-4.7,4.7-4.7h19.4c2.6,0,4.7,2.1,4.7,4.7v0
		C256.8,132.6,254.7,134.7,252.1,134.7z"/>
	<path class="st0" d="M246.2,146.4h-8.6c-2.1,0-3.7-1.7-3.7-3.7l0,0c0-2.1,1.7-3.7,3.7-3.7h8.6c2.1,0,3.7,1.7,3.7,3.7l0,0
		C250,144.8,248.3,146.4,246.2,146.4z"/>
	<g>
		<path class="st0" d="M228.4,98.2c-0.2-0.2-0.2-0.3-0.2-0.6V53.5c0-0.2,0.1-0.4,0.2-0.6c0.2-0.2,0.3-0.2,0.6-0.2h14
			c2.9,0,5.5,0.5,7.7,1.6c2.2,1.1,4,2.6,5.2,4.6c1.2,2,1.8,4.3,1.8,7v19.2c0,2.7-0.6,5-1.8,7c-1.2,2-2.9,3.5-5.2,4.6
			c-2.2,1.1-4.8,1.6-7.7,1.6h-14C228.8,98.4,228.6,98.3,228.4,98.2z M237.7,90.5l5.3-0.1c1.6,0,2.9-0.6,3.9-1.7
			c1-1.2,1.5-2.7,1.6-4.6V67c0-2-0.5-3.5-1.5-4.7c-1-1.2-2.3-1.7-4-1.7h-5.3c-0.2,0-0.3,0.1-0.3,0.3v29.2
			C237.4,90.4,237.5,90.5,237.7,90.5z"/>
	</g>
	<g>
		<g>
			<path class="st0" d="M27.1,72.7c-2.3-1.1-4-2.6-5.3-4.5C20.6,66.2,20,64,20,61.5v-1.7c0-0.2,0.1-0.4,0.2-0.6
				c0.2-0.2,0.3-0.2,0.6-0.2h7.5c0.2,0,0.4,0.1,0.6,0.2c0.2,0.2,0.2,0.3,0.2,0.6V61c0,1.5,0.6,2.8,1.7,3.8c1.1,1,2.7,1.5,4.6,1.5
				c1.7,0,3-0.4,3.9-1.3c0.9-0.9,1.3-2,1.3-3.3c0-1-0.3-1.9-0.8-2.6c-0.6-0.7-1.4-1.4-2.4-2c-1-0.6-2.6-1.5-4.7-2.6
				c-2.6-1.3-4.7-2.5-6.4-3.7c-1.7-1.1-3.1-2.6-4.2-4.4c-1.2-1.8-1.8-3.9-1.8-6.5c0-2.5,0.6-4.7,1.8-6.6c1.2-1.9,2.9-3.3,5.1-4.4
				c2.2-1,4.7-1.5,7.4-1.5c2.9,0,5.5,0.6,7.8,1.7c2.3,1.1,4,2.7,5.3,4.7c1.3,2,1.9,4.3,1.9,6.9v1.3c0,0.2-0.1,0.4-0.2,0.6
				c-0.2,0.2-0.3,0.2-0.6,0.2h-7.5c-0.2,0-0.4-0.1-0.6-0.2c-0.2-0.2-0.2-0.3-0.2-0.6v-1.2c0-1.6-0.5-2.9-1.6-3.9
				c-1.1-1-2.6-1.6-4.4-1.6c-1.6,0-2.8,0.4-3.7,1.2c-0.9,0.8-1.3,1.9-1.3,3.4c0,1,0.3,1.9,0.8,2.6c0.5,0.7,1.3,1.4,2.4,2.1
				c1.1,0.7,2.7,1.6,5,2.6l1.4,0.8c2.5,1.4,4.5,2.6,5.9,3.6c1.4,1,2.6,2.3,3.6,3.9c1,1.6,1.4,3.5,1.4,5.7c0,4-1.3,7.1-4,9.4
				c-2.7,2.3-6.2,3.5-10.7,3.5C32,74.3,29.4,73.7,27.1,72.7z"/>
			<path class="st0" d="M55.8,35c-1-1-1.4-2.2-1.4-3.7c0-1.5,0.5-2.8,1.4-3.7c0.9-1,2.2-1.4,3.7-1.4c1.5,0,2.8,0.5,3.7,1.4
				c1,1,1.4,2.2,1.4,3.7c0,1.5-0.5,2.7-1.5,3.7c-1,1-2.2,1.5-3.7,1.5C58,36.4,56.8,36,55.8,35z M55.1,73.5c-0.2-0.2-0.2-0.3-0.2-0.6
				V41c0-0.2,0.1-0.4,0.2-0.6c0.2-0.2,0.3-0.2,0.6-0.2h7.6c0.2,0,0.4,0.1,0.6,0.2c0.2,0.2,0.2,0.3,0.2,0.6v32c0,0.2-0.1,0.4-0.2,0.6
				c-0.2,0.2-0.3,0.2-0.6,0.2h-7.6C55.5,73.7,55.3,73.7,55.1,73.5z"/>
			<path class="st0" d="M97.3,56.7l-0.1,2.5c0,0.5-0.3,0.8-0.8,0.8H79.2c-0.2,0-0.3,0.1-0.3,0.3c0.1,1,0.2,1.7,0.3,2.2
				c0.2,1.2,0.8,2.2,1.6,2.9c0.8,0.7,1.9,1,3.2,1c2.1,0,3.6-1,4.4-2.9c0.2-0.4,0.5-0.6,1-0.5l6.9,1.4c0.5,0.1,0.7,0.5,0.5,1
				c-1,2.9-2.5,5.1-4.7,6.6c-2.2,1.5-4.9,2.3-8.1,2.3c-3.9,0-6.9-0.9-9.2-2.6c-2.3-1.8-3.8-4.3-4.5-7.6c-0.4-1.8-0.6-4.5-0.6-8.2
				c0-2.1,0.1-3.8,0.4-5.3c0.5-3.3,1.9-5.9,4.3-7.9c2.4-2,5.4-3,9.1-3c4,0,7.2,1.1,9.7,3.4c2.5,2.2,3.8,5.2,4.1,8.8
				C97.2,53.3,97.3,54.9,97.3,56.7z M80.5,48.6c-0.8,0.7-1.3,1.7-1.5,2.9c-0.1,0.8-0.2,1.6-0.2,2.5c0,0.2,0.1,0.3,0.3,0.3h8.5
				c0.2,0,0.3-0.1,0.3-0.3c0-0.9-0.1-1.7-0.2-2.5c-0.2-1.2-0.7-2.1-1.4-2.8c-0.8-0.7-1.8-1.1-2.9-1.1C82.2,47.6,81.3,47.9,80.5,48.6
				z"/>
			<path class="st0" d="M121.4,40.5c0.3,0.2,0.5,0.6,0.4,1l-1.3,7.5c0,0.5-0.3,0.7-0.9,0.5c-0.7-0.2-1.3-0.3-1.9-0.3
				c-0.5,0-1.1,0.1-1.7,0.2c-1.3,0.2-2.3,0.8-3.2,1.8c-0.9,1-1.3,2.3-1.3,3.8V73c0,0.2-0.1,0.4-0.2,0.6c-0.2,0.2-0.3,0.2-0.6,0.2
				H103c-0.2,0-0.4-0.1-0.6-0.2c-0.2-0.2-0.2-0.3-0.2-0.6V41c0-0.2,0.1-0.4,0.2-0.6c0.2-0.2,0.3-0.2,0.6-0.2h7.6
				c0.2,0,0.4,0.1,0.6,0.2c0.2,0.2,0.2,0.3,0.2,0.6v2.6c0,0.2,0,0.3,0.1,0.3c0.1,0,0.1,0,0.2-0.2c1.5-2.7,3.7-4,6.4-4
				C119.3,39.8,120.4,40,121.4,40.5z"/>
			<path class="st0" d="M144.4,40.5c0.3,0.2,0.5,0.6,0.4,1l-1.3,7.5c0,0.5-0.3,0.7-0.9,0.5c-0.7-0.2-1.3-0.3-1.9-0.3
				c-0.5,0-1.1,0.1-1.7,0.2c-1.3,0.2-2.3,0.8-3.2,1.8c-0.9,1-1.3,2.3-1.3,3.8V73c0,0.2-0.1,0.4-0.2,0.6c-0.2,0.2-0.3,0.2-0.6,0.2
				h-7.6c-0.2,0-0.4-0.1-0.6-0.2c-0.2-0.2-0.2-0.3-0.2-0.6V41c0-0.2,0.1-0.4,0.2-0.6c0.2-0.2,0.3-0.2,0.6-0.2h7.6
				c0.2,0,0.4,0.1,0.6,0.2c0.2,0.2,0.2,0.3,0.2,0.6v2.6c0,0.2,0,0.3,0.1,0.3c0.1,0,0.1,0,0.2-0.2c1.5-2.7,3.7-4,6.4-4
				C142.4,39.8,143.5,40,144.4,40.5z"/>
			<path class="st0" d="M167.9,41.1c2,0.9,3.6,2.2,4.8,3.9c1.2,1.7,1.7,3.6,1.7,5.7V73c0,0.2-0.1,0.4-0.2,0.6
				c-0.2,0.2-0.3,0.2-0.6,0.2H166c-0.2,0-0.4-0.1-0.6-0.2c-0.2-0.2-0.2-0.3-0.2-0.6v-1.8c0-0.1,0-0.2-0.1-0.3c-0.1,0-0.2,0-0.3,0.1
				c-1.7,2.2-4.2,3.3-7.7,3.3c-3,0-5.4-0.8-7.4-2.3c-2-1.5-3-4.1-3-7.6c0-7.1,4.4-10.6,13.3-10.6h4.8c0.2,0,0.3-0.1,0.3-0.3v-1.5
				c0-1.3-0.4-2.3-1.1-3.1c-0.8-0.8-1.8-1.2-3.1-1.2c-1,0-1.9,0.2-2.6,0.7c-0.7,0.5-1.1,1.1-1.3,2c-0.1,0.4-0.4,0.7-0.9,0.7
				l-7.9-0.5c-0.2,0-0.4-0.1-0.6-0.2c-0.2-0.1-0.2-0.3-0.2-0.5c0.3-3,1.6-5.4,4.1-7.3c2.5-1.8,5.6-2.8,9.3-2.8
				C163.5,39.7,165.8,40.2,167.9,41.1z M163.6,66.1c1-0.8,1.6-1.9,1.6-3.3v-2.7c0-0.2-0.1-0.3-0.3-0.3h-3.7c-1.6,0-2.9,0.3-3.8,1
				c-0.9,0.7-1.4,1.7-1.4,3c0,1.1,0.3,2,1,2.6c0.7,0.6,1.6,0.9,2.7,0.9C161.3,67.3,162.6,66.9,163.6,66.1z"/>
			<path class="st0" d="M181.8,51.7c-1.1-1.1-1.6-2.4-1.6-4c0-1.5,0.6-2.8,1.8-3.9c1.2-1.1,2.5-1.7,4-1.7c1.5,0,2.8,0.6,4,1.7
				c1.2,1.1,1.8,2.4,1.8,3.9c0,1.6-0.5,2.9-1.6,4c-1.1,1.1-2.5,1.7-4.1,1.7C184.3,53.3,182.9,52.8,181.8,51.7z M180.7,79.8
				c-0.2-0.2-0.2-0.4-0.2-0.6l1.4-14.9c0.1-0.5,0.3-0.7,0.8-0.7h6.7c0.6,0,0.8,0.3,0.7,0.8l-3.3,14.9c-0.1,0.5-0.4,0.7-0.8,0.7h-4.6
				C181.1,80.1,180.9,80,180.7,79.8z"/>
		</g>
	</g>
	<g>
		<path class="st0" d="M45.9,82h23.1v4.3H50.7v13.8h17.2v4.3H50.7v18.1h-4.8V82z"/>
		<path class="st0" d="M74.7,122.4v-3.9h7.8V97.4h-7.8v-3.9h10.8l0.9,3.8h0.3c1.3-1.2,2.8-2.2,4.4-3.1c1.6-0.8,3.5-1.3,5.8-1.3
			c1.3,0,2.4,0.3,3.1,0.7c0.8,0.5,1.4,1.2,1.8,2.2c0.4,1,0.7,2.1,0.9,3.5c0.2,1.4,0.2,2.9,0.2,4.6l-4,0.1c0-2.4-0.2-4.2-0.7-5.4
			c-0.5-1.1-1.4-1.7-2.6-1.7c-1.2,0-2.3,0.2-3.2,0.5c-1,0.3-1.8,0.8-2.5,1.3c-0.7,0.5-1.3,1-1.8,1.5c-0.5,0.5-0.9,0.9-1.1,1.3v17H98
			v3.9H74.7z"/>
		<path class="st0" d="M105.9,108c0-4.7,1.2-8.3,3.6-11c2.4-2.7,5.9-4.1,10.4-4.1c2.4,0,4.5,0.4,6.3,1.2c1.7,0.8,3.2,1.9,4.4,3.2
			c1.2,1.3,2,2.9,2.6,4.8c0.6,1.8,0.8,3.8,0.8,5.9c0,2.3-0.3,4.4-0.9,6.3c-0.6,1.9-1.5,3.5-2.7,4.8c-1.2,1.3-2.7,2.3-4.4,3
			c-1.8,0.7-3.7,1.1-6,1.1c-2.4,0-4.5-0.4-6.2-1.2c-1.8-0.8-3.2-1.9-4.4-3.2c-1.2-1.3-2-2.9-2.6-4.8
			C106.2,112.1,105.9,110.1,105.9,108z M110.7,108c0,1.3,0.2,2.7,0.5,4c0.3,1.3,0.9,2.6,1.6,3.6c0.7,1.1,1.7,1.9,2.8,2.6
			c1.2,0.7,2.6,1,4.3,1c3.1,0,5.4-1,6.9-2.9c1.6-1.9,2.3-4.7,2.3-8.4c0-1.4-0.2-2.7-0.5-4.1c-0.3-1.3-0.9-2.5-1.6-3.6
			c-0.7-1.1-1.7-1.9-2.9-2.6c-1.2-0.7-2.6-1-4.3-1c-3.1,0-5.4,0.9-6.9,2.8C111.5,101.4,110.7,104.2,110.7,108z"/>
		<path class="st0" d="M139.7,103.6c0-0.3,0-0.8,0-1.4c0-0.6,0-1.1-0.1-1.7c0-0.6-0.1-1.2-0.1-1.8c-0.1-0.6-0.1-1.1-0.2-1.5h-3.9
			v-3.8h7.7l0.5,4.7h0.3c0.4-0.7,0.9-1.3,1.5-1.9c0.6-0.6,1.4-1.2,2.2-1.7c0.8-0.5,1.8-0.9,2.8-1.2c1-0.3,2.1-0.5,3.3-0.5
			c1.8,0,3.3,0.2,4.7,0.6c1.4,0.4,2.5,1.1,3.4,2c0.9,1,1.6,2.3,2,4c0.5,1.7,0.7,3.8,0.7,6.4v16.6h-4.6v-15.7c0-3.2-0.5-5.6-1.6-7.2
			c-1-1.6-2.9-2.4-5.6-2.4c-1,0-2,0.2-2.9,0.6c-0.9,0.4-1.8,0.9-2.6,1.6c-0.8,0.7-1.4,1.4-2,2.3c-0.6,0.9-1,1.8-1.3,2.7v18.1h-4.4
			V103.6z"/>
		<path class="st0" d="M167.9,93.6h6.9v-5.7l4.6-1.3v7h15.4v3.9h-15.4V111c0,2.8,0.7,4.9,2,6.2c1.4,1.3,3.3,2,5.8,2
			c1.7,0,3.2-0.3,4.5-1c1.3-0.7,2.4-1.4,3.5-2.1l1.5,3.4c-1.3,1.1-3,1.9-4.8,2.6c-1.9,0.7-3.8,1-5.7,1c-1.5,0-3-0.2-4.4-0.7
			c-1.4-0.4-2.6-1.1-3.6-2c-1-0.9-1.9-2.1-2.5-3.5c-0.6-1.4-0.9-3.2-0.9-5.2V97.4h-6.9V93.6z"/>
	</g>
</g>
</svg>
