<?xml version="1.0" encoding="utf-8"?>
<!-- Generator: Adobe Illustrator 22.0.1, SVG Export Plug-In . SVG Version: 6.00 Build 0)  -->
<svg version="1.1" id="Capa_1" xmlns="http://www.w3.org/2000/svg" xmlns:xlink="http://www.w3.org/1999/xlink" x="0px" y="0px"
	 viewBox="0 0 300.5 163.4" style="enable-background:new 0 0 300.5 163.4;" xml:space="preserve">
<style type="text/css">
	.st0{fill:#F5F5F5;}
	.st1{fill:#FFDD00;}
	.st2{fill:#1D1D1B;}
</style>
<path class="st0" d="M9.2,0c0.6,77.1,63.3,139.4,140.5,139.4S289.5,77.1,290.1,0H9.2z"/>
<g>
	<g>
		<g>
			<path class="st1" d="M182.9,54c6-0.3,6.5-3.3,6.5-5.8c0-2-0.2-4.3-0.4-6.7c-0.3-2.3-0.4-4.7-0.4-6.8c0-8.4,5.1-12,13.7-12h3.7
				v8.7h-1.6c-3.4,0-4.7,2.2-4.7,5.7c0,1.3,0.2,2.7,0.4,4.4c0.2,1.7,0.4,3.6,0.4,5.8c0.1,7.1-2.6,9.5-8,10.6v0.2
				c5.3,1.1,8.1,3.4,8,10.5c0,2.3-0.2,4.2-0.4,5.9c-0.2,1.7-0.4,3.1-0.4,4.4c0,3.4,1.1,5.7,4.7,5.7h1.6v8.6h-3.7
				c-8.2,0-13.7-3.3-13.7-12c0-2.1,0.2-4.4,0.5-6.8c0.2-2.4,0.4-4.7,0.4-6.7c0-2.4-0.5-5.5-6.5-5.8V54z"/>
		</g>
		<g>
			<path class="st1" d="M250.8,61.7c-6,0.3-6.5,3.3-6.5,5.8c0,2,0.2,4.3,0.4,6.7c0.3,2.3,0.4,4.7,0.4,6.8c0,8.4-5.1,12-13.7,12h-3.7
				v-8.7h1.6c3.4,0,4.7-2.2,4.7-5.7c0-1.3-0.2-2.7-0.4-4.4c-0.2-1.7-0.4-3.6-0.4-5.8c-0.1-7.1,2.6-9.5,8-10.6v-0.2
				c-5.3-1.1-8.1-3.4-8-10.5c0-2.3,0.2-4.2,0.4-5.9c0.2-1.7,0.4-3.1,0.4-4.4c0-3.4-1.1-5.7-4.7-5.7h-1.6v-8.6h3.7
				c8.2,0,13.7,3.3,13.7,12c0,2.1-0.2,4.4-0.5,6.8c-0.2,2.4-0.4,4.7-0.4,6.7c0,2.4,0.5,5.5,6.5,5.8V61.7z"/>
		</g>
		<path class="st2" d="M226.6,93.1h-20.7c-2.4,0-4.3-1.9-4.3-4.3l0,0c0-2.4,1.9-4.3,4.3-4.3h20.7c2.4,0,4.3,1.9,4.3,4.3l0,0
			C230.8,91.2,228.9,93.1,226.6,93.1z"/>
		<path class="st2" d="M224.2,103.8h-14.8c-1.9,0-3.5-1.6-3.5-3.5v-0.1c0-1.9,1.6-3.5,3.5-3.5h14.8c1.9,0,3.5,1.6,3.5,3.5v0.1
			C227.7,102.3,226.1,103.8,224.2,103.8z"/>
		<path class="st2" d="M219.8,112.7h-6.6c-1.6,0-2.8-1.3-2.8-2.8l0,0c0-1.6,1.3-2.8,2.8-2.8h6.6c1.6,0,2.8,1.3,2.8,2.8l0,0
			C222.6,111.4,221.3,112.7,219.8,112.7z"/>
		<g>
			<path class="st2" d="M206.3,76.1c-0.1-0.1-0.2-0.3-0.2-0.4V42.4c0-0.2,0.1-0.3,0.2-0.4c0.1-0.1,0.3-0.2,0.4-0.2h10.6
				c2.2,0,4.1,0.4,5.9,1.2c1.7,0.8,3,2,3.9,3.5s1.4,3.3,1.4,5.3v14.5c0,2-0.5,3.8-1.4,5.3s-2.2,2.7-3.9,3.5
				c-1.7,0.8-3.6,1.2-5.9,1.2h-10.6C206.5,76.3,206.4,76.3,206.3,76.1z M213.3,70.3l4.1-0.1c1.2,0,2.2-0.4,3-1.3
				c0.8-0.9,1.1-2,1.2-3.5V52.6c0-1.5-0.4-2.7-1.1-3.5s-1.8-1.3-3-1.3h-4.1c-0.2,0-0.3,0.1-0.3,0.3v22.1
				C213.1,70.3,213.2,70.3,213.3,70.3z"/>
		</g>
		<g>
			<g>
				<path class="st2" d="M53.9,56.9c-1.7-0.8-3-1.9-4-3.4c-0.9-1.5-1.4-3.2-1.4-5.1v-1.3c0-0.2,0.1-0.3,0.2-0.4
					c0.1-0.1,0.3-0.2,0.4-0.2h5.7c0.2,0,0.3,0.1,0.4,0.2c0.1,0.1,0.2,0.3,0.2,0.4v0.9c0,1.2,0.4,2.1,1.3,2.9c0.9,0.8,2,1.2,3.5,1.2
					c1.3,0,2.3-0.3,2.9-1c0.7-0.7,1-1.5,1-2.5c0-0.8-0.2-1.4-0.6-2c-0.4-0.5-1-1-1.8-1.5s-2-1.1-3.6-2c-2-1-3.6-1.9-4.8-2.8
					c-1.3-0.9-2.3-2-3.2-3.3s-1.3-3-1.3-4.9s0.5-3.6,1.4-5c0.9-1.4,2.2-2.5,3.8-3.3c1.7-0.8,3.5-1.2,5.6-1.2c2.2,0,4.2,0.4,5.9,1.3
					s3,2,4,3.5c1,1.5,1.4,3.3,1.4,5.2v1c0,0.2-0.1,0.3-0.2,0.4c-0.1,0.1-0.3,0.2-0.4,0.2h-5.7c-0.2,0-0.3-0.1-0.4-0.2
					c-0.1-0.1-0.2-0.3-0.2-0.4v-0.9c0-1.2-0.4-2.2-1.2-3s-1.9-1.2-3.4-1.2c-1.2,0-2.1,0.3-2.8,0.9c-0.7,0.6-1,1.5-1,2.5
					c0,0.8,0.2,1.4,0.6,2c0.4,0.6,1,1.1,1.8,1.6c0.8,0.5,2.1,1.2,3.8,2l1,0.6c1.9,1,3.4,2,4.5,2.7s2,1.8,2.7,2.9
					c0.7,1.2,1.1,2.6,1.1,4.3c0,3-1,5.4-3,7.1c-2,1.8-4.7,2.6-8.1,2.6C57.6,58.1,55.6,57.7,53.9,56.9z"/>
				<path class="st2" d="M75.6,28.3c-0.7-0.7-1.1-1.7-1.1-2.8c0-1.2,0.3-2.1,1.1-2.8s1.6-1.1,2.8-1.1s2.1,0.4,2.8,1.1
					c0.7,0.7,1.1,1.7,1.1,2.8c0,1.1-0.4,2-1.1,2.8s-1.7,1.1-2.8,1.1C77.3,29.4,76.4,29.1,75.6,28.3z M75.1,57.5
					c-0.1-0.1-0.2-0.3-0.2-0.4V32.9c0-0.2,0.1-0.3,0.2-0.4c0.1-0.1,0.3-0.2,0.4-0.2h5.8c0.2,0,0.3,0.1,0.4,0.2
					c0.1,0.1,0.2,0.3,0.2,0.4v24.2c0,0.2-0.1,0.3-0.2,0.4c-0.1,0.1-0.3,0.2-0.4,0.2h-5.8C75.4,57.7,75.2,57.6,75.1,57.5z"/>
				<path class="st2" d="M107,44.7l-0.1,1.9c0,0.4-0.2,0.6-0.6,0.6H93.3c-0.2,0-0.3,0.1-0.3,0.3c0.1,0.8,0.1,1.3,0.2,1.7
					c0.2,0.9,0.6,1.7,1.2,2.2c0.6,0.5,1.4,0.8,2.4,0.8c1.6,0,2.7-0.8,3.4-2.2c0.2-0.3,0.4-0.5,0.7-0.4l5.2,1
					c0.4,0.1,0.5,0.3,0.4,0.7c-0.7,2.2-1.9,3.8-3.6,5c-1.7,1.2-3.7,1.8-6.2,1.8c-2.9,0-5.3-0.7-7-2c-1.7-1.3-2.8-3.3-3.4-5.8
					c-0.3-1.3-0.4-3.4-0.4-6.2c0-1.6,0.1-2.9,0.3-4c0.4-2.5,1.4-4.5,3.3-6c1.8-1.5,4.1-2.3,6.9-2.3c3,0,5.4,0.8,7.3,2.5
					c1.9,1.7,2.9,3.9,3.1,6.7C107,42.2,107,43.4,107,44.7z M94.3,38.7c-0.6,0.5-0.9,1.3-1.1,2.2c-0.1,0.6-0.2,1.2-0.2,1.9
					c0,0.2,0.1,0.3,0.3,0.3h6.4c0.2,0,0.3-0.1,0.3-0.3c0-0.7-0.1-1.3-0.2-1.9c-0.1-0.9-0.5-1.6-1.1-2.2s-1.3-0.8-2.2-0.8
					S94.9,38.1,94.3,38.7z"/>
				<path class="st2" d="M125.2,32.5c0.3,0.2,0.4,0.4,0.3,0.8l-1,5.7c0,0.4-0.3,0.5-0.7,0.3c-0.5-0.1-1-0.2-1.4-0.2
					c-0.4,0-0.8,0-1.3,0.2c-0.9,0.1-1.8,0.6-2.4,1.4s-1,1.7-1,2.9v13.5c0,0.2-0.1,0.3-0.2,0.4c-0.1,0.1-0.3,0.2-0.4,0.2h-5.8
					c-0.2,0-0.3-0.1-0.4-0.2c-0.1-0.1-0.2-0.3-0.2-0.4V32.9c0-0.2,0.1-0.3,0.2-0.4c0.1-0.1,0.3-0.2,0.4-0.2h5.8
					c0.2,0,0.3,0.1,0.4,0.2c0.1,0.1,0.2,0.3,0.2,0.4v2c0,0.1,0,0.2,0.1,0.2c0.1,0,0.1,0,0.2-0.1c1.2-2,2.8-3,4.8-3
					C123.7,32,124.5,32.2,125.2,32.5z"/>
				<path class="st2" d="M142.7,32.5c0.3,0.2,0.4,0.4,0.3,0.8l-1,5.7c0,0.4-0.3,0.5-0.7,0.3c-0.5-0.1-1-0.2-1.4-0.2
					c-0.4,0-0.8,0-1.3,0.2c-0.9,0.1-1.8,0.6-2.4,1.4s-1,1.7-1,2.9v13.5c0,0.2-0.1,0.3-0.2,0.4c-0.1,0.1-0.3,0.2-0.4,0.2h-5.8
					c-0.2,0-0.3-0.1-0.4-0.2s-0.2-0.3-0.2-0.4V32.9c0-0.2,0.1-0.3,0.2-0.4c0.1-0.1,0.3-0.2,0.4-0.2h5.8c0.2,0,0.3,0.1,0.4,0.2
					c0.1,0.1,0.2,0.3,0.2,0.4v2c0,0.1,0,0.2,0.1,0.2c0.1,0,0.1,0,0.2-0.1c1.1-2,2.8-3,4.8-3C141.2,32,142,32.2,142.7,32.5z"/>
				<path class="st2" d="M160.4,33c1.6,0.7,2.8,1.7,3.6,3c0.9,1.3,1.3,2.7,1.3,4.3v16.8c0,0.2-0.1,0.3-0.2,0.4
					c-0.1,0.1-0.3,0.2-0.4,0.2H159c-0.2,0-0.3-0.1-0.4-0.2s-0.2-0.3-0.2-0.4v-1.4c0-0.1,0-0.2-0.1-0.2c-0.1,0-0.1,0-0.2,0.1
					c-1.3,1.7-3.2,2.5-5.8,2.5c-2.2,0-4.1-0.6-5.6-1.7c-1.5-1.2-2.3-3.1-2.3-5.8c0-5.4,3.4-8,10.1-8h3.6c0.2,0,0.3-0.1,0.3-0.3v-1.1
					c0-1-0.3-1.8-0.9-2.4c-0.6-0.6-1.4-0.9-2.3-0.9c-0.8,0-1.4,0.2-2,0.5c-0.5,0.4-0.9,0.9-1,1.5c-0.1,0.3-0.3,0.5-0.7,0.5l-6-0.3
					c-0.2,0-0.3,0-0.4-0.2s-0.2-0.2-0.1-0.4c0.2-2.3,1.2-4.1,3.1-5.5s4.2-2.1,7-2.1C157.1,31.9,158.9,32.3,160.4,33z M157.2,51.8
					c0.8-0.6,1.2-1.4,1.2-2.5v-2.1c0-0.2-0.1-0.3-0.3-0.3h-2.8c-1.2,0-2.2,0.3-2.9,0.8s-1,1.3-1,2.3c0,0.9,0.3,1.5,0.8,2
					s1.2,0.7,2.1,0.7C155.5,52.8,156.4,52.5,157.2,51.8z"/>
				<path class="st1" d="M171,41c-0.8-0.8-1.2-1.8-1.2-3.1c0-1.2,0.4-2.2,1.3-3s1.9-1.3,3-1.3s2.1,0.4,3,1.3s1.3,1.8,1.3,3
					c0,1.2-0.4,2.2-1.2,3c-0.8,0.8-1.9,1.3-3.1,1.3C172.9,42.2,171.8,41.8,171,41z M170.2,62.3c-0.1-0.1-0.2-0.3-0.1-0.5l1-11.3
					c0.1-0.4,0.3-0.5,0.6-0.5h5c0.5,0,0.6,0.2,0.5,0.6l-2.5,11.3c-0.1,0.4-0.3,0.5-0.6,0.5h-3.5C170.5,62.5,170.3,62.4,170.2,62.3z"
					/>
			</g>
		</g>
		<g>
			<path class="st2" d="M68.2,63.9h17.5v3.2H71.8v10.4h13v3.2h-13v13.7h-3.6V63.9z"/>
			<path class="st2" d="M89.9,94.5v-2.9h5.9v-16h-5.9v-2.9h8.2l0.7,2.8H99c1-0.9,2.1-1.7,3.3-2.3s2.7-1,4.4-1c1,0,1.8,0.2,2.4,0.6
				s1.1,0.9,1.4,1.7c0.3,0.7,0.6,1.6,0.7,2.6s0.2,2.2,0.2,3.5l-3.1,0c0-1.8-0.2-3.2-0.6-4.1c-0.4-0.9-1-1.3-2-1.3
				c-0.9,0-1.7,0.1-2.4,0.4c-0.7,0.3-1.4,0.6-1.9,1s-1,0.8-1.4,1.1s-0.7,0.7-0.8,1v12.8h8.4v2.9L89.9,94.5L89.9,94.5z"/>
			<path class="st2" d="M113.6,83.6c0-3.5,0.9-6.3,2.8-8.4s4.4-3.1,7.9-3.1c1.8,0,3.4,0.3,4.7,0.9c1.3,0.6,2.4,1.4,3.3,2.4
				c0.9,1,1.5,2.2,1.9,3.6c0.4,1.4,0.6,2.9,0.6,4.5c0,1.8-0.2,3.3-0.7,4.7c-0.5,1.4-1.1,2.6-2.1,3.6c-0.9,1-2,1.8-3.3,2.3
				c-1.3,0.5-2.8,0.8-4.5,0.8c-1.8,0-3.4-0.3-4.7-0.9c-1.3-0.6-2.4-1.4-3.3-2.4s-1.5-2.2-1.9-3.6C113.8,86.7,113.6,85.2,113.6,83.6z
				 M117.2,83.6c0,1,0.1,2,0.4,3.1s0.7,1.9,1.2,2.8c0.6,0.8,1.3,1.5,2.2,2c0.9,0.5,2,0.7,3.2,0.7c2.3,0,4.1-0.7,5.3-2.2
				c1.2-1.4,1.8-3.6,1.8-6.3c0-1.1-0.1-2.1-0.4-3.1s-0.7-1.9-1.2-2.7c-0.6-0.8-1.3-1.5-2.2-2s-2-0.7-3.2-0.7c-2.3,0-4.1,0.7-5.2,2.1
				C117.8,78.6,117.2,80.8,117.2,83.6z"/>
			<path class="st2" d="M139.2,80.3c0-0.3,0-0.6,0-1c0-0.4,0-0.9-0.1-1.3c0-0.4-0.1-0.9-0.1-1.3c0-0.4-0.1-0.8-0.1-1.1h-2.9v-2.8
				h5.9l0.4,3.5h0.2c0.3-0.5,0.7-1,1.2-1.5c0.5-0.5,1-0.9,1.7-1.3s1.4-0.7,2.1-0.9s1.6-0.3,2.5-0.3c1.3,0,2.5,0.2,3.6,0.4
				c1,0.3,1.9,0.8,2.6,1.6c0.7,0.7,1.2,1.8,1.6,3c0.4,1.3,0.5,2.9,0.5,4.8v12.5h-3.4V82.6c0-2.4-0.4-4.2-1.2-5.4
				c-0.8-1.2-2.2-1.8-4.3-1.8c-0.8,0-1.5,0.2-2.2,0.5c-0.7,0.3-1.4,0.7-1.9,1.2s-1.1,1.1-1.5,1.7c-0.4,0.7-0.8,1.3-1,2.1v13.7h-3.4
				L139.2,80.3L139.2,80.3z"/>
			<path class="st2" d="M160.5,72.7h5.2v-4.3l3.4-1v5.3h11.7v2.9h-11.7v10.3c0,2.1,0.5,3.7,1.5,4.7s2.5,1.5,4.4,1.5
				c1.3,0,2.4-0.3,3.4-0.7c1-0.5,1.9-1,2.6-1.6l1.1,2.6c-1,0.8-2.2,1.5-3.6,2s-2.9,0.7-4.3,0.7c-1.2,0-2.3-0.2-3.3-0.5
				c-1-0.3-1.9-0.8-2.7-1.6s-1.4-1.6-1.9-2.7c-0.5-1.1-0.7-2.4-0.7-3.9V75.6h-5.2L160.5,72.7L160.5,72.7z"/>
		</g>
	</g>
</g>
</svg>
