<?xml version="1.0" encoding="utf-8"?>
<!-- Generator: Adobe Illustrator 24.3.0, SVG Export Plug-In . SVG Version: 6.00 Build 0)  -->
<svg version="1.1" id="Capa_1" xmlns="http://www.w3.org/2000/svg" xmlns:xlink="http://www.w3.org/1999/xlink" x="0px" y="0px"
	 viewBox="0 0 300.48 163.35" style="enable-background:new 0 0 300.48 163.35;" xml:space="preserve">
<style type="text/css">
	.st0{fill:#F5F5F5;}
	.st1{fill:#FFDD00;}
	.st2{fill:#1D1D1B;}
</style>
<g>
	<path class="st0" d="M271.73,69.71l-34.8,66.08c-7.67,16.4-26.13,24.79-43.54,19.79l-141.2-31.83
		c-10.14-2.91-18.55-10.04-23.09-19.56L3.2,49.84c-1.62-3.4-2.67-6.92-3.2-10.47L182.93,0l65.52,18.65
		C270.28,24.86,281.36,49.15,271.73,69.71z"/>
	<g>
		<g>
			<path class="st1" d="M175.45,70.96c6-0.35,6.53-3.35,6.53-5.83c0-2.03-0.18-4.33-0.44-6.71c-0.27-2.3-0.44-4.68-0.44-6.8
				c0-8.39,5.12-12.01,13.69-12.01h3.71v8.65h-1.59c-3.44,0-4.68,2.21-4.68,5.65c0,1.32,0.18,2.74,0.35,4.42
				c0.18,1.68,0.35,3.62,0.35,5.83c0.09,7.06-2.65,9.54-8.04,10.6v0.18c5.3,1.06,8.12,3.44,8.04,10.51c0,2.3-0.18,4.24-0.35,5.92
				c-0.18,1.68-0.35,3.09-0.35,4.42c0,3.44,1.06,5.65,4.68,5.74h1.59v8.56h-3.71c-8.21,0-13.69-3.27-13.69-12.01
				c0-2.12,0.18-4.41,0.53-6.8c0.18-2.38,0.35-4.68,0.35-6.71c0-2.38-0.53-5.48-6.53-5.83V70.96z"/>
		</g>
		<g>
			<path class="st1" d="M243.34,78.74c-6,0.35-6.53,3.35-6.53,5.83c0,2.03,0.18,4.33,0.44,6.71c0.27,2.3,0.44,4.68,0.44,6.8
				c0,8.39-5.12,12.01-13.69,12.01h-3.71v-8.65h1.59c3.44,0,4.68-2.21,4.68-5.65c0-1.32-0.18-2.74-0.35-4.42
				c-0.18-1.68-0.35-3.62-0.35-5.83c-0.09-7.06,2.65-9.54,8.04-10.6v-0.18c-5.3-1.06-8.12-3.44-8.04-10.51
				c0-2.3,0.18-4.24,0.35-5.92c0.18-1.68,0.35-3.09,0.35-4.42c0-3.44-1.06-5.65-4.68-5.74h-1.59v-8.56H224
				c8.21,0,13.69,3.27,13.69,12.01c0,2.12-0.18,4.41-0.53,6.8c-0.18,2.38-0.35,4.68-0.35,6.71c0,2.38,0.53,5.48,6.53,5.83V78.74z"/>
		</g>
		<path class="st2" d="M219.14,110.08h-20.68c-2.37,0-4.28-1.92-4.28-4.28l0,0c0-2.37,1.92-4.28,4.28-4.28h20.68
			c2.37,0,4.28,1.92,4.28,4.28l0,0C223.42,108.17,221.51,110.08,219.14,110.08z"/>
		<path class="st2" d="M216.79,120.82H202c-1.93,0-3.5-1.57-3.5-3.5v-0.1c0-1.93,1.57-3.5,3.5-3.5h14.79c1.93,0,3.5,1.57,3.5,3.5
			v0.1C220.3,119.26,218.73,120.82,216.79,120.82z"/>
		<path class="st2" d="M212.34,129.68h-6.55c-1.56,0-2.82-1.26-2.82-2.82l0,0c0-1.56,1.26-2.82,2.82-2.82h6.55
			c1.56,0,2.82,1.26,2.82,2.82l0,0C215.17,128.41,213.9,129.68,212.34,129.68z"/>
		<g>
			<path class="st2" d="M198.87,93.14c-0.12-0.11-0.17-0.25-0.17-0.42V59.36c0-0.16,0.06-0.3,0.17-0.42
				c0.12-0.11,0.25-0.17,0.42-0.17h10.61c2.2,0,4.15,0.41,5.85,1.23c1.7,0.82,3,1.99,3.92,3.5c0.92,1.51,1.38,3.27,1.38,5.28v14.51
				c0,2.01-0.46,3.77-1.38,5.28c-0.92,1.51-2.23,2.68-3.92,3.5c-1.7,0.82-3.64,1.23-5.85,1.23h-10.61
				C199.12,93.32,198.98,93.26,198.87,93.14z M205.9,87.34l4.05-0.05c1.22,0,2.2-0.44,2.96-1.31c0.76-0.87,1.15-2.03,1.18-3.48
				V69.57c0-1.48-0.38-2.66-1.14-3.53s-1.76-1.31-3.01-1.31h-4.05c-0.17,0-0.25,0.08-0.25,0.25v22.11
				C205.65,87.26,205.74,87.34,205.9,87.34z"/>
		</g>
		<g>
			<g>
				<path class="st2" d="M46.5,73.86c-1.71-0.81-3.04-1.94-3.97-3.41c-0.94-1.46-1.41-3.15-1.41-5.06v-1.28
					c0-0.16,0.06-0.3,0.17-0.42c0.11-0.11,0.25-0.17,0.42-0.17h5.68c0.16,0,0.3,0.06,0.42,0.17c0.12,0.12,0.17,0.26,0.17,0.42v0.94
					c0,1.15,0.43,2.11,1.28,2.89c0.86,0.77,2.01,1.16,3.46,1.16c1.28,0,2.26-0.33,2.94-0.99c0.67-0.66,1.01-1.5,1.01-2.52
					c0-0.76-0.21-1.41-0.64-1.95c-0.43-0.54-1.03-1.05-1.8-1.53c-0.77-0.48-1.97-1.13-3.58-1.95c-1.97-0.99-3.59-1.91-4.84-2.76
					c-1.25-0.86-2.32-1.96-3.21-3.31s-1.33-2.98-1.33-4.89c0-1.91,0.45-3.58,1.36-5.01c0.9-1.43,2.18-2.53,3.83-3.31
					c1.65-0.77,3.52-1.16,5.63-1.16c2.2,0,4.16,0.42,5.87,1.26s3.04,2.02,4,3.53c0.95,1.51,1.43,3.26,1.43,5.23v0.99
					c0,0.17-0.06,0.3-0.17,0.42c-0.12,0.12-0.26,0.17-0.42,0.17h-5.68c-0.17,0-0.3-0.06-0.42-0.17c-0.12-0.11-0.17-0.25-0.17-0.42
					v-0.89c0-1.18-0.41-2.17-1.23-2.96s-1.94-1.19-3.36-1.19c-1.18,0-2.11,0.3-2.79,0.91c-0.67,0.61-1.01,1.46-1.01,2.54
					c0,0.76,0.2,1.42,0.59,1.97c0.39,0.56,1,1.09,1.83,1.6c0.82,0.51,2.07,1.18,3.75,2l1.04,0.59c1.91,1.05,3.4,1.97,4.47,2.74
					s1.97,1.75,2.69,2.94c0.72,1.18,1.09,2.62,1.09,4.29c0,3-1.01,5.37-3.04,7.13c-2.02,1.76-4.71,2.64-8.07,2.64
					C50.2,75.07,48.21,74.67,46.5,73.86z"/>
				<path class="st2" d="M68.22,45.33c-0.72-0.74-1.09-1.67-1.09-2.79c0-1.15,0.35-2.09,1.06-2.81s1.64-1.09,2.79-1.09
					s2.09,0.36,2.81,1.09c0.72,0.72,1.09,1.66,1.09,2.81c0,1.12-0.37,2.05-1.11,2.79s-1.67,1.11-2.79,1.11
					C69.86,46.44,68.94,46.07,68.22,45.33z M67.7,74.5c-0.12-0.11-0.17-0.25-0.17-0.42V49.9c0-0.16,0.06-0.3,0.17-0.42
					c0.12-0.11,0.25-0.17,0.42-0.17h5.78c0.16,0,0.3,0.06,0.42,0.17c0.11,0.12,0.17,0.26,0.17,0.42v24.18c0,0.17-0.06,0.3-0.17,0.42
					c-0.12,0.12-0.26,0.17-0.42,0.17h-5.78C67.95,74.68,67.81,74.62,67.7,74.5z"/>
				<path class="st2" d="M99.61,61.74l-0.05,1.93c0,0.4-0.2,0.59-0.59,0.59H85.89c-0.17,0-0.25,0.08-0.25,0.25
					c0.07,0.76,0.13,1.32,0.2,1.68c0.16,0.92,0.57,1.65,1.21,2.17c0.64,0.53,1.44,0.79,2.39,0.79c1.61-0.03,2.73-0.77,3.36-2.22
					c0.16-0.33,0.41-0.46,0.74-0.4l5.23,1.04c0.4,0.1,0.53,0.35,0.4,0.74c-0.72,2.17-1.92,3.84-3.58,5.01
					c-1.66,1.17-3.71,1.75-6.15,1.75c-2.93,0-5.26-0.67-6.98-2c-1.73-1.33-2.85-3.25-3.38-5.75c-0.3-1.35-0.44-3.41-0.44-6.17
					c0-1.58,0.1-2.91,0.3-4c0.36-2.5,1.45-4.5,3.26-6c1.81-1.5,4.1-2.25,6.86-2.25c2.99,0,5.43,0.85,7.31,2.54
					c1.88,1.7,2.91,3.92,3.11,6.69C99.56,59.22,99.61,60.43,99.61,61.74z M86.9,55.67c-0.58,0.53-0.95,1.25-1.11,2.17
					c-0.1,0.59-0.15,1.22-0.15,1.88c0,0.17,0.08,0.25,0.25,0.25h6.42c0.16,0,0.25-0.08,0.25-0.25c0-0.66-0.05-1.28-0.15-1.88
					c-0.13-0.89-0.49-1.6-1.09-2.15s-1.33-0.81-2.22-0.81S87.47,55.14,86.9,55.67z"/>
				<path class="st2" d="M117.82,49.55c0.26,0.17,0.36,0.43,0.3,0.79l-0.99,5.68c-0.03,0.4-0.26,0.51-0.69,0.35
					c-0.53-0.13-1-0.2-1.43-0.2c-0.4,0-0.82,0.05-1.28,0.15c-0.95,0.13-1.76,0.59-2.42,1.38s-0.99,1.74-0.99,2.86v13.52
					c0,0.17-0.06,0.3-0.17,0.42c-0.12,0.12-0.26,0.17-0.42,0.17h-5.78c-0.17,0-0.3-0.06-0.42-0.17c-0.12-0.11-0.17-0.25-0.17-0.42
					V49.9c0-0.16,0.06-0.3,0.17-0.42c0.11-0.11,0.25-0.17,0.42-0.17h5.78c0.16,0,0.3,0.06,0.42,0.17c0.11,0.12,0.17,0.26,0.17,0.42
					v1.97c0,0.13,0.02,0.21,0.07,0.22c0.05,0.02,0.11-0.02,0.17-0.12c1.15-2.01,2.76-3.01,4.84-3.01
					C116.29,48.96,117.1,49.16,117.82,49.55z"/>
				<path class="st2" d="M135.3,49.55c0.26,0.17,0.36,0.43,0.3,0.79l-0.99,5.68c-0.03,0.4-0.26,0.51-0.69,0.35
					c-0.53-0.13-1-0.2-1.43-0.2c-0.4,0-0.82,0.05-1.28,0.15c-0.95,0.13-1.76,0.59-2.42,1.38s-0.99,1.74-0.99,2.86v13.52
					c0,0.17-0.06,0.3-0.17,0.42c-0.12,0.12-0.26,0.17-0.42,0.17h-5.78c-0.17,0-0.3-0.06-0.42-0.17s-0.17-0.25-0.17-0.42V49.9
					c0-0.16,0.06-0.3,0.17-0.42c0.11-0.11,0.25-0.17,0.42-0.17h5.78c0.16,0,0.3,0.06,0.42,0.17c0.11,0.12,0.17,0.26,0.17,0.42v1.97
					c0,0.13,0.02,0.21,0.07,0.22c0.05,0.02,0.11-0.02,0.17-0.12c1.15-2.01,2.76-3.01,4.84-3.01
					C133.77,48.96,134.57,49.16,135.3,49.55z"/>
				<path class="st2" d="M153.02,49.97c1.55,0.71,2.76,1.7,3.63,2.96c0.87,1.27,1.31,2.71,1.31,4.32v16.83
					c0,0.17-0.06,0.3-0.17,0.42c-0.12,0.12-0.26,0.17-0.42,0.17h-5.78c-0.17,0-0.3-0.06-0.42-0.17S151,74.25,151,74.08V72.7
					c0-0.1-0.03-0.16-0.1-0.2c-0.07-0.03-0.13,0-0.2,0.1c-1.25,1.65-3.19,2.47-5.83,2.47c-2.24,0-4.11-0.58-5.6-1.73
					c-1.5-1.15-2.25-3.08-2.25-5.78c0-5.36,3.36-8.05,10.07-8.05h3.65c0.16,0,0.25-0.08,0.25-0.25v-1.14c0-0.99-0.29-1.78-0.86-2.37
					c-0.58-0.59-1.36-0.89-2.34-0.89c-0.79,0-1.45,0.18-1.97,0.54c-0.53,0.36-0.86,0.86-0.99,1.48c-0.1,0.33-0.33,0.49-0.69,0.49
					l-5.97-0.35c-0.17,0-0.3-0.05-0.42-0.15s-0.16-0.23-0.12-0.4c0.2-2.27,1.23-4.1,3.09-5.5s4.2-2.1,7.03-2.1
					C149.71,48.91,151.47,49.26,153.02,49.97z M149.81,68.85c0.79-0.62,1.18-1.45,1.18-2.47v-2.07c0-0.16-0.08-0.25-0.25-0.25h-2.76
					c-1.22,0-2.17,0.26-2.86,0.79s-1.04,1.28-1.04,2.27c0,0.86,0.26,1.51,0.79,1.97c0.53,0.46,1.22,0.69,2.07,0.69
					C148.07,69.79,149.02,69.48,149.81,68.85z"/>
				<path class="st1" d="M163.58,57.99c-0.82-0.82-1.23-1.84-1.23-3.06c0-1.15,0.44-2.15,1.33-2.99s1.89-1.26,3.01-1.26
					s2.12,0.42,3.01,1.26c0.89,0.84,1.33,1.83,1.33,2.99c0,1.18-0.41,2.2-1.23,3.04c-0.82,0.84-1.86,1.26-3.11,1.26
					C165.44,59.22,164.41,58.81,163.58,57.99z M162.77,79.29c-0.12-0.12-0.16-0.27-0.12-0.47l1.04-11.3
					c0.07-0.36,0.26-0.54,0.59-0.54h5.04c0.46,0,0.64,0.21,0.54,0.64l-2.52,11.3c-0.07,0.36-0.28,0.54-0.64,0.54h-3.46
					C163.04,79.46,162.88,79.41,162.77,79.29z"/>
			</g>
		</g>
		<g>
			<path class="st2" d="M60.74,80.93h17.51v3.23H64.36V94.6h13.01v3.23H64.36v13.67h-3.62C60.74,111.5,60.74,80.93,60.74,80.93z"/>
			<path class="st2" d="M82.53,111.5v-2.93h5.9V92.59h-5.9v-2.93h8.17l0.7,2.84h0.22c0.99-0.9,2.1-1.67,3.32-2.31
				s2.68-0.96,4.37-0.96c0.99,0,1.78,0.19,2.38,0.57c0.6,0.38,1.06,0.93,1.4,1.66c0.33,0.73,0.56,1.61,0.68,2.64
				s0.17,2.21,0.17,3.52l-3.06,0.04c0-1.85-0.18-3.21-0.55-4.07c-0.36-0.87-1.03-1.3-1.99-1.3c-0.9,0-1.72,0.13-2.45,0.39
				c-0.73,0.26-1.36,0.58-1.9,0.96c-0.54,0.38-1,0.75-1.38,1.13c-0.38,0.38-0.66,0.7-0.83,0.96v12.85h8.38v2.93L82.53,111.5
				L82.53,111.5z"/>
			<path class="st2" d="M106.15,100.58c0-3.52,0.92-6.31,2.75-8.36s4.45-3.08,7.86-3.08c1.83,0,3.41,0.3,4.74,0.9
				c1.32,0.6,2.42,1.4,3.3,2.42c0.87,1.02,1.52,2.23,1.94,3.62c0.42,1.4,0.63,2.9,0.63,4.5c0,1.75-0.23,3.33-0.7,4.74
				c-0.47,1.41-1.15,2.61-2.05,3.6c-0.9,0.99-2.02,1.75-3.34,2.29c-1.33,0.54-2.83,0.81-4.52,0.81c-1.81,0-3.38-0.3-4.72-0.9
				c-1.34-0.6-2.45-1.4-3.32-2.42c-0.87-1.02-1.52-2.23-1.94-3.62C106.36,103.68,106.15,102.18,106.15,100.58z M109.77,100.58
				c0,1.02,0.12,2.04,0.37,3.06c0.25,1.02,0.65,1.94,1.2,2.75c0.55,0.82,1.27,1.47,2.15,1.96c0.88,0.5,1.97,0.74,3.24,0.74
				c2.32,0,4.07-0.72,5.25-2.16c1.17-1.44,1.76-3.56,1.76-6.35c0-1.05-0.12-2.07-0.37-3.08c-0.25-1.01-0.65-1.91-1.22-2.73
				c-0.57-0.81-1.29-1.47-2.18-1.96c-0.89-0.49-1.97-0.74-3.24-0.74c-2.32,0-4.06,0.71-5.22,2.14
				C110.35,95.63,109.77,97.76,109.77,100.58z"/>
			<path class="st2" d="M131.74,97.3c0-0.26-0.01-0.6-0.02-1.03c-0.01-0.42-0.04-0.86-0.07-1.31c-0.03-0.45-0.07-0.9-0.11-1.33
				c-0.04-0.44-0.1-0.81-0.15-1.14h-2.93v-2.84h5.85l0.39,3.54h0.22c0.29-0.49,0.68-0.98,1.16-1.46c0.48-0.48,1.04-0.92,1.68-1.31
				s1.35-0.71,2.14-0.94c0.79-0.23,1.62-0.35,2.49-0.35c1.34,0,2.52,0.15,3.56,0.44c1.03,0.29,1.89,0.81,2.58,1.55
				c0.68,0.74,1.2,1.75,1.55,3.01c0.35,1.27,0.52,2.88,0.52,4.83v12.53h-3.45V99.64c0-2.41-0.39-4.23-1.17-5.45
				c-0.78-1.22-2.2-1.83-4.26-1.83c-0.75,0-1.49,0.15-2.2,0.46c-0.71,0.31-1.36,0.7-1.94,1.2s-1.09,1.07-1.52,1.72
				c-0.44,0.65-0.75,1.34-0.96,2.07v13.68h-3.36L131.74,97.3L131.74,97.3z"/>
			<path class="st2" d="M153.05,89.66h5.2v-4.32l3.45-0.96v5.28h11.66v2.93H161.7v10.31c0,2.13,0.51,3.7,1.54,4.72
				s2.5,1.53,4.42,1.53c1.31,0,2.44-0.25,3.42-0.74c0.97-0.49,1.85-1.03,2.63-1.62l1.13,2.58c-1.02,0.82-2.23,1.47-3.65,1.96
				c-1.42,0.49-2.86,0.74-4.34,0.74c-1.16,0-2.26-0.17-3.3-0.5c-1.03-0.33-1.94-0.85-2.73-1.55s-1.41-1.59-1.88-2.69
				c-0.47-1.09-0.7-2.39-0.7-3.91V92.59h-5.2L153.05,89.66L153.05,89.66z"/>
		</g>
	</g>
</g>
</svg>
