<?xml version="1.0" encoding="utf-8"?>
<!-- Generator: Adobe Illustrator 22.0.1, SVG Export Plug-In . SVG Version: 6.00 Build 0)  -->
<svg version="1.1" id="Capa_1" xmlns="http://www.w3.org/2000/svg" xmlns:xlink="http://www.w3.org/1999/xlink" x="0px" y="0px"
	 viewBox="0 0 202.5 92.4" style="enable-background:new 0 0 202.5 92.4;" xml:space="preserve">
<style type="text/css">
	.st0{fill:#F5F5F5;}
	.st1{fill:#FFDD00;}
	.st2{fill:#1D1D1B;}
</style>
<path class="st0" d="M13.8,0c-2.2,5.2-3.4,10.9-3.4,16.9v22.7c0,24.1,19.8,43.9,43.9,43.9h91.7c24.1,0,43.9-19.8,43.9-43.9V16.9
	c0-6-1.2-11.7-3.4-16.9H13.8z"/>
<g>
	<g>
		<g>
			<path class="st1" d="M118.8,35c3.4-0.2,3.6-1.8,3.6-3.2c0-1.1-0.1-2.4-0.2-3.7c-0.2-1.3-0.2-2.6-0.2-3.8c0-4.7,2.8-6.7,7.6-6.7
				h2.1v4.9h-0.9c-1.9,0-2.6,1.2-2.6,3.2c0,0.7,0.1,1.5,0.2,2.5c0.1,0.9,0.2,2,0.2,3.2c0.1,4-1.5,5.3-4.5,5.9v0.1
				c3,0.6,4.5,1.9,4.5,5.9c0,1.3-0.1,2.3-0.2,3.3c-0.1,0.9-0.2,1.7-0.2,2.5c0,1.9,0.6,3.2,2.6,3.2h0.9v4.8h-2.1
				c-4.6,0-7.6-1.8-7.6-6.7c0-1.2,0.1-2.5,0.3-3.8c0.1-1.3,0.2-2.6,0.2-3.7c0-1.3-0.3-3.1-3.6-3.2L118.8,35L118.8,35z"/>
		</g>
		<g>
			<path class="st1" d="M156.7,39.3c-3.4,0.2-3.6,1.8-3.6,3.2c0,1.1,0.1,2.4,0.2,3.7c0.2,1.3,0.2,2.6,0.2,3.8c0,4.7-2.8,6.7-7.6,6.7
				h-2.1v-4.9h0.9c1.9,0,2.6-1.2,2.6-3.2c0-0.7-0.1-1.5-0.2-2.5c-0.1-0.9-0.2-2-0.2-3.2c-0.1-4,1.5-5.3,4.5-5.9V37
				c-3-0.6-4.5-1.9-4.5-5.9c0-1.3,0.1-2.3,0.2-3.3c0.1-0.9,0.2-1.7,0.2-2.5c0-1.9-0.6-3.2-2.6-3.2h-0.9v-4.8h2.1
				c4.6,0,7.6,1.8,7.6,6.7c0,1.2-0.1,2.5-0.3,3.8c-0.1,1.3-0.2,2.6-0.2,3.7c0,1.3,0.3,3.1,3.6,3.2L156.7,39.3L156.7,39.3z"/>
		</g>
		<path class="st2" d="M143.2,56.9h-11.6c-1.3,0-2.4-1.1-2.4-2.4l0,0c0-1.3,1.1-2.4,2.4-2.4h11.6c1.3,0,2.4,1.1,2.4,2.4l0,0
			C145.5,55.8,144.5,56.9,143.2,56.9z"/>
		<path class="st2" d="M141.8,62.8h-8.3c-1.1,0-2-0.9-2-2v-0.1c0-1.1,0.9-2,2-2h8.3c1.1,0,2,0.9,2,2v0.1
			C143.8,62,142.9,62.8,141.8,62.8z"/>
		<path class="st2" d="M139.4,67.8h-3.7c-0.9,0-1.6-0.7-1.6-1.6l0,0c0-0.9,0.7-1.6,1.6-1.6h3.7c0.9,0,1.6,0.7,1.6,1.6l0,0
			C140.9,67.1,140.2,67.8,139.4,67.8z"/>
		<g>
			<path class="st2" d="M131.8,47.4c-0.1-0.1-0.1-0.2-0.1-0.2V28.5c0-0.1,0.1-0.2,0.1-0.2c0.1-0.1,0.2-0.1,0.2-0.1h5.9
				c1.2,0,2.3,0.2,3.3,0.7c0.9,0.4,1.7,1.1,2.2,2c0.5,0.8,0.8,1.8,0.8,3v8.1c0,1.1-0.3,2.1-0.8,3c-0.5,0.8-1.2,1.5-2.2,2
				c-0.9,0.4-2,0.7-3.3,0.7h-5.9C131.9,47.5,131.9,47.5,131.8,47.4z M135.7,44.1l2.3-0.1c0.7,0,1.2-0.2,1.7-0.7
				c0.4-0.5,0.6-1.1,0.7-2v-7.1c0-0.8-0.2-1.5-0.6-2c-0.4-0.4-1-0.7-1.7-0.7h-2.3c-0.1,0-0.2,0.1-0.2,0.2v12.3
				C135.6,44.1,135.7,44.1,135.7,44.1z"/>
		</g>
		<g>
			<g>
				<path class="st2" d="M46.7,36.6c-0.9-0.4-1.7-1.1-2.2-1.9c-0.5-0.8-0.8-1.8-0.8-2.8v-0.7c0-0.1,0.1-0.2,0.1-0.2
					c0.1-0.1,0.2-0.1,0.2-0.1h3.2c0.1,0,0.2,0.1,0.2,0.1c0.1,0.1,0.1,0.2,0.1,0.2v0.5c0,0.7,0.2,1.2,0.7,1.6s1.1,0.7,2,0.7
					c0.7,0,1.3-0.2,1.6-0.6c0.4-0.4,0.6-0.8,0.6-1.4c0-0.4-0.1-0.8-0.3-1.1c-0.2-0.3-0.6-0.6-1-0.8c-0.4-0.3-1.1-0.6-2-1.1
					c-1.1-0.6-2-1.1-2.7-1.6c-0.7-0.5-1.3-1.1-1.8-1.8c-0.5-0.7-0.7-1.7-0.7-2.7c0-1.1,0.3-2,0.8-2.8s1.2-1.4,2.1-1.8
					c0.9-0.4,2-0.7,3.1-0.7c1.2,0,2.3,0.2,3.3,0.7c0.9,0.5,1.7,1.1,2.2,2s0.8,1.8,0.8,2.9v0.6c0,0.1-0.1,0.2-0.1,0.2
					C56.1,23.9,56,24,55.9,24h-3.2c-0.1,0-0.2-0.1-0.2-0.1c-0.1-0.1-0.1-0.2-0.1-0.2v-0.5c0-0.7-0.2-1.2-0.7-1.7
					c-0.4-0.4-1.1-0.7-1.9-0.7c-0.7,0-1.2,0.2-1.6,0.5c-0.4,0.3-0.6,0.8-0.6,1.4c0,0.4,0.1,0.8,0.3,1.1s0.6,0.6,1,0.9
					c0.4,0.3,1.2,0.7,2.1,1.1l0.6,0.3c1.1,0.6,1.9,1.1,2.5,1.5s1.1,1,1.5,1.6c0.4,0.7,0.6,1.5,0.6,2.4c0,1.7-0.6,3-1.7,4
					c-1.1,1-2.6,1.5-4.5,1.5C48.8,37.3,47.7,37.1,46.7,36.6z"/>
				<path class="st2" d="M58.9,20.7c-0.4-0.4-0.6-0.9-0.6-1.6c0-0.7,0.2-1.2,0.6-1.6s0.9-0.6,1.6-0.6s1.2,0.2,1.6,0.6
					c0.4,0.4,0.6,0.9,0.6,1.6c0,0.6-0.2,1.1-0.6,1.6s-0.9,0.6-1.6,0.6C59.8,21.3,59.3,21.1,58.9,20.7z M58.6,37
					c-0.1-0.1-0.1-0.2-0.1-0.2V23.2c0-0.1,0.1-0.2,0.1-0.2c0.1-0.1,0.2-0.1,0.2-0.1H62c0.1,0,0.2,0.1,0.2,0.1
					c0.1,0.1,0.1,0.2,0.1,0.2v13.5c0,0.1-0.1,0.2-0.1,0.2c-0.1,0.1-0.2,0.1-0.2,0.1h-3.2C58.7,37.1,58.6,37,58.6,37z"/>
				<path class="st2" d="M76.4,29.8l-0.1,1.1c0,0.2-0.1,0.3-0.3,0.3h-7.3c-0.1,0-0.2,0.1-0.2,0.2c0.1,0.4,0.1,0.7,0.1,0.9
					c0.1,0.5,0.3,0.9,0.7,1.2c0.3,0.3,0.8,0.4,1.3,0.4c0.9,0,1.5-0.4,1.9-1.2c0.1-0.2,0.2-0.3,0.4-0.2l2.9,0.6
					c0.2,0.1,0.3,0.2,0.2,0.4c-0.4,1.2-1.1,2.1-2,2.8c-0.9,0.7-2.1,1-3.5,1c-1.6,0-3-0.4-3.9-1.1s-1.6-1.8-1.9-3.2
					c-0.2-0.7-0.2-1.9-0.2-3.5c0-0.9,0.1-1.6,0.2-2.2c0.2-1.4,0.8-2.5,1.8-3.4c1-0.8,2.3-1.3,3.9-1.3c1.7,0,3,0.4,4.1,1.4
					c1.1,0.9,1.6,2.2,1.7,3.7C76.4,28.4,76.4,29.1,76.4,29.8z M69.3,26.5c-0.3,0.3-0.5,0.7-0.6,1.2c-0.1,0.3-0.1,0.7-0.1,1.1
					c0,0.1,0.1,0.2,0.2,0.2h3.6c0.1,0,0.2-0.1,0.2-0.2c0-0.4-0.1-0.7-0.1-1.1c-0.1-0.5-0.3-0.9-0.6-1.2C71.4,26.1,71,26,70.5,26
					S69.6,26.1,69.3,26.5z"/>
				<path class="st2" d="M86.6,23c0.2,0.1,0.2,0.2,0.2,0.4l-0.6,3.2c0,0.2-0.2,0.3-0.4,0.2c-0.3-0.1-0.6-0.1-0.8-0.1
					c-0.2,0-0.4,0-0.7,0.1c-0.5,0.1-1,0.3-1.3,0.8c-0.3,0.4-0.6,0.9-0.6,1.6v7.5c0,0.1-0.1,0.2-0.1,0.2c-0.1,0.1-0.2,0.1-0.2,0.1
					h-3.2c-0.1,0-0.2-0.1-0.2-0.1c-0.1-0.1-0.1-0.2-0.1-0.2V23.2c0-0.1,0.1-0.2,0.1-0.2c0.1-0.1,0.2-0.1,0.2-0.1H82
					c0.1,0,0.2,0.1,0.2,0.1c0.1,0.1,0.1,0.2,0.1,0.2v1.1c0,0.1,0,0.1,0.1,0.1c0.1,0,0.1,0,0.1-0.1c0.7-1.1,1.6-1.7,2.7-1.7
					C85.7,22.7,86.2,22.9,86.6,23z"/>
				<path class="st2" d="M96.3,23c0.2,0.1,0.2,0.2,0.2,0.4l-0.6,3.2c0,0.2-0.2,0.3-0.4,0.2c-0.3-0.1-0.6-0.1-0.8-0.1s-0.4,0-0.7,0.1
					c-0.5,0.1-1,0.3-1.3,0.8c-0.3,0.4-0.6,0.9-0.6,1.6v7.5c0,0.1-0.1,0.2-0.1,0.2c-0.1,0.1-0.2,0.1-0.2,0.1h-3.2
					c-0.1,0-0.2-0.1-0.2-0.1c-0.1-0.1-0.1-0.2-0.1-0.2V23.2c0-0.1,0.1-0.2,0.1-0.2c0.1-0.1,0.2-0.1,0.2-0.1h3.2
					c0.1,0,0.2,0.1,0.2,0.1c0.1,0.1,0.1,0.2,0.1,0.2v1.1c0,0.1,0,0.1,0.1,0.1s0.1,0,0.1-0.1c0.6-1.1,1.6-1.7,2.7-1.7
					C95.5,22.7,95.9,22.9,96.3,23z"/>
				<path class="st2" d="M106.2,23.3c0.9,0.4,1.6,0.9,2,1.7c0.5,0.7,0.7,1.5,0.7,2.4v9.4c0,0.1-0.1,0.2-0.1,0.2
					c-0.1,0.1-0.2,0.1-0.2,0.1h-3.2c-0.1,0-0.2-0.1-0.2-0.1c-0.1-0.1-0.1-0.2-0.1-0.2V36c0-0.1,0-0.1-0.1-0.1s-0.1,0-0.1,0.1
					c-0.7,0.9-1.8,1.4-3.2,1.4c-1.2,0-2.3-0.3-3.1-0.9c-0.8-0.7-1.3-1.7-1.3-3.2c0-3,1.9-4.5,5.6-4.5h2c0.1,0,0.2-0.1,0.2-0.2v-0.6
					c0-0.6-0.2-1-0.5-1.3c-0.3-0.3-0.8-0.5-1.3-0.5c-0.4,0-0.8,0.1-1.1,0.3c-0.3,0.2-0.5,0.5-0.6,0.8c-0.1,0.2-0.2,0.3-0.4,0.3
					l-3.4-0.2c-0.1,0-0.2,0-0.2-0.1s-0.1-0.1-0.1-0.2c0.1-1.3,0.7-2.3,1.7-3.1c1.1-0.8,2.3-1.2,3.9-1.2
					C104.4,22.7,105.4,22.9,106.2,23.3z M104.4,33.8c0.4-0.3,0.7-0.8,0.7-1.4v-1.2c0-0.1-0.1-0.2-0.2-0.2h-1.6
					c-0.7,0-1.2,0.2-1.6,0.4s-0.6,0.7-0.6,1.3c0,0.5,0.2,0.8,0.4,1.1s0.7,0.4,1.2,0.4C103.5,34.4,104,34.2,104.4,33.8z"/>
				<path class="st1" d="M112.1,27.8c-0.4-0.4-0.7-1-0.7-1.7c0-0.7,0.2-1.2,0.7-1.7s1.1-0.7,1.7-0.7s1.2,0.2,1.7,0.7s0.7,1,0.7,1.7
					c0,0.7-0.2,1.2-0.7,1.7s-1.1,0.7-1.7,0.7S112.6,28.2,112.1,27.8z M111.7,39.7c-0.1-0.1-0.1-0.2-0.1-0.3l0.6-6.3
					c0.1-0.2,0.2-0.3,0.3-0.3h2.8c0.3,0,0.3,0.1,0.3,0.3l-1.4,6.3c-0.1,0.2-0.2,0.3-0.3,0.3h-2C111.8,39.8,111.7,39.7,111.7,39.7z"
					/>
			</g>
		</g>
		<g>
			<path class="st2" d="M54.7,40.6h9.8v1.8h-7.8v5.8H64v1.8h-7.3v7.6h-2C54.7,57.6,54.7,40.6,54.7,40.6z"/>
			<path class="st2" d="M66.8,57.6V56h3.3v-8.9h-3.3v-1.6h4.6l0.4,1.6h0.1c0.6-0.5,1.2-0.9,1.8-1.3c0.7-0.3,1.5-0.6,2.5-0.6
				c0.6,0,1,0.1,1.3,0.3c0.3,0.2,0.6,0.5,0.8,0.9c0.2,0.4,0.3,0.9,0.4,1.5c0.1,0.6,0.1,1.2,0.1,2h-1.7c0-1-0.1-1.8-0.3-2.3
				c-0.2-0.5-0.6-0.7-1.1-0.7c-0.5,0-0.9,0.1-1.3,0.2s-0.8,0.3-1.1,0.6s-0.6,0.4-0.8,0.6c-0.2,0.2-0.4,0.4-0.4,0.6V56h4.7v1.6
				L66.8,57.6L66.8,57.6z"/>
			<path class="st2" d="M80.1,51.6c0-2,0.5-3.5,1.6-4.7c1.1-1.2,2.5-1.7,4.4-1.7c1,0,1.9,0.2,2.6,0.5s1.3,0.8,1.8,1.3
				c0.5,0.6,0.8,1.2,1.1,2s0.3,1.6,0.3,2.5c0,1-0.1,1.8-0.4,2.6c-0.3,0.8-0.6,1.5-1.2,2c-0.5,0.6-1.1,1-1.8,1.3
				c-0.7,0.3-1.6,0.4-2.5,0.4c-1,0-1.9-0.2-2.6-0.5S82,56.6,81.5,56s-0.8-1.2-1.1-2C80.2,53.3,80.1,52.4,80.1,51.6z M82.1,51.6
				c0,0.6,0.1,1.1,0.2,1.7s0.4,1.1,0.7,1.6c0.3,0.4,0.7,0.8,1.2,1.1s1.1,0.4,1.8,0.4c1.3,0,2.3-0.4,3-1.2c0.7-0.8,1-2,1-3.5
				c0-0.6-0.1-1.2-0.2-1.7c-0.2-0.6-0.4-1.1-0.7-1.5c-0.3-0.4-0.7-0.8-1.2-1.1c-0.5-0.3-1.1-0.4-1.8-0.4c-1.3,0-2.3,0.4-2.9,1.2
				C82.4,48.8,82.1,50,82.1,51.6z"/>
			<path class="st2" d="M94.4,49.7c0-0.2,0-0.3,0-0.6s0-0.5-0.1-0.7c0-0.2-0.1-0.5-0.1-0.7c0-0.2-0.1-0.4-0.1-0.6h-1.6v-1.6h3.3
				l0.2,2h0.1c0.2-0.3,0.4-0.6,0.7-0.8s0.6-0.5,0.9-0.7s0.8-0.4,1.2-0.5s0.9-0.2,1.4-0.2c0.7,0,1.4,0.1,2,0.2
				c0.6,0.2,1.1,0.4,1.5,0.9c0.4,0.4,0.7,1,0.9,1.7c0.2,0.7,0.3,1.6,0.3,2.7v7h-1.9V51c0-1.3-0.2-2.3-0.7-3s-1.2-1-2.4-1
				c-0.4,0-0.8,0.1-1.2,0.3s-0.8,0.4-1.1,0.7s-0.6,0.6-0.8,0.9c-0.2,0.4-0.4,0.7-0.6,1.2v7.6h-1.9L94.4,49.7L94.4,49.7z"/>
			<path class="st2" d="M106.3,45.5h2.9v-2.4l1.9-0.6v3h6.5v1.6h-6.5v5.8c0,1.2,0.3,2.1,0.8,2.6c0.6,0.6,1.4,0.8,2.5,0.8
				c0.7,0,1.3-0.2,1.9-0.4c0.6-0.3,1.1-0.6,1.5-0.9l0.6,1.5c-0.6,0.4-1.2,0.8-2,1.1s-1.6,0.4-2.4,0.4c-0.7,0-1.3-0.1-1.8-0.3
				s-1.1-0.4-1.5-0.9s-0.8-0.9-1.1-1.5s-0.4-1.3-0.4-2.2v-6h-2.9L106.3,45.5L106.3,45.5z"/>
		</g>
	</g>
</g>
</svg>
