<?xml version="1.0" encoding="utf-8"?>
<!-- Generator: Adobe Illustrator 23.0.1, SVG Export Plug-In . SVG Version: 6.00 Build 0)  -->
<svg version="1.1" id="Capa_1" xmlns="http://www.w3.org/2000/svg" xmlns:xlink="http://www.w3.org/1999/xlink" x="0px" y="0px"
	 viewBox="0 0 157.6 123.6" style="enable-background:new 0 0 157.6 123.6;" xml:space="preserve">
<style type="text/css">
	.st0{fill:#F5F5F5;}
	.st1{fill:#FFDD00;}
	.st2{fill:#1D1D1B;}
</style>
<polygon class="st0" points="0,123.6 0,0 157.6,0 "/>
<g>
	<g>
		<g>
			<path class="st1" d="M61.7,34c2.1-1.7,1.4-2.8,0.8-3.7c-0.5-0.7-1.2-1.5-1.8-2.2c-0.7-0.7-1.3-1.5-1.9-2.3
				c-2.2-3-1.3-5.5,1.7-7.7l1.3-1l2.3,3.1l-0.6,0.4c-1.2,0.9-1.1,2-0.2,3.2c0.3,0.4,0.8,0.9,1.3,1.5c0.5,0.5,1,1.2,1.6,1.9
				c1.9,2.5,1.5,4-0.1,5.8l0,0.1c2.2-1,3.7-0.9,5.6,1.6c0.6,0.8,1,1.5,1.4,2.2c0.4,0.6,0.7,1.2,1,1.7c0.9,1.2,1.9,1.7,3.1,0.8
				l0.6-0.4l2.2,3l-1.3,1c-2.9,2.1-5.6,2.4-7.9-0.7c-0.6-0.8-1.1-1.6-1.6-2.5c-0.5-0.9-1.1-1.7-1.6-2.4C67,36.5,66,35.5,63.9,37
				L61.7,34L61.7,34z"/>
		</g>
		<g>
			<path class="st1" d="M87.6,19.3c-2.1,1.7-1.4,2.8-0.8,3.7c0.5,0.7,1.2,1.5,1.8,2.2c0.7,0.7,1.3,1.5,1.9,2.3
				c2.2,3,1.3,5.5-1.7,7.7l-1.3,1l-2.3-3.1l0.6-0.4c1.2-0.9,1.1-2,0.2-3.2c-0.3-0.4-0.8-0.9-1.3-1.5c-0.5-0.5-1-1.2-1.6-1.9
				c-1.9-2.5-1.5-4,0.1-5.8v0c-2.2,1-3.7,0.9-5.6-1.6c-0.6-0.8-1-1.5-1.4-2.2c-0.4-0.6-0.7-1.2-1-1.7c-0.9-1.2-1.9-1.7-3.1-0.8
				l-0.6,0.4l-2.2-3l1.3-1c2.9-2.1,5.6-2.4,7.9,0.7c0.6,0.8,1.1,1.6,1.6,2.5c0.5,0.9,1.1,1.7,1.6,2.4c0.6,0.8,1.6,1.8,3.7,0.4
				L87.6,19.3L87.6,19.3z"/>
		</g>
		<path class="st2" d="M87.2,36.6L79.8,42c-0.8,0.6-2,0.4-2.6-0.4l0,0c-0.6-0.8-0.4-2,0.4-2.6l7.3-5.4c0.8-0.6,2-0.4,2.6,0.4l0,0
			C88.1,34.9,88,36,87.2,36.6z"/>
		<path class="st2" d="M89,41l-5.2,3.8c-0.7,0.5-1.7,0.4-2.2-0.3l0-0.1c-0.5-0.7-0.4-1.7,0.3-2.2l5.2-3.8c0.7-0.5,1.7-0.4,2.2,0.3
			l0,0.1C89.9,39.6,89.7,40.5,89,41z"/>
		<path class="st2" d="M89.8,45.2L87.5,47c-0.6,0.4-1.3,0.3-1.7-0.3l0,0c-0.4-0.6-0.3-1.3,0.3-1.7l2.3-1.7c0.6-0.4,1.3-0.3,1.7,0.3
			l0,0C90.4,44.1,90.3,44.9,89.8,45.2z"/>
		<g>
			<path class="st2" d="M75.6,35.9c-0.1,0-0.2-0.1-0.2-0.1L66.8,24c0-0.1,0-0.2,0-0.2c0-0.1,0.1-0.2,0.1-0.2l3.7-2.7
				c0.8-0.6,1.5-0.9,2.4-1.1c0.8-0.2,1.6-0.1,2.3,0.2c0.7,0.3,1.3,0.8,1.9,1.5l3.7,5.1c0.5,0.7,0.8,1.5,0.9,2.3
				c0.1,0.7-0.1,1.5-0.5,2.3c-0.4,0.7-0.9,1.4-1.8,2L75.8,36C75.7,35.9,75.7,35.9,75.6,35.9z M76.5,32l1.4-1.1
				c0.4-0.3,0.7-0.7,0.8-1.2c0-0.5-0.1-1-0.5-1.6l-3.3-4.5c-0.4-0.5-0.8-0.9-1.3-1c-0.4-0.1-1,0-1.4,0.3L70.8,24
				c-0.1,0-0.1,0.2,0,0.2l5.7,7.8C76.5,32,76.5,32,76.5,32z"/>
		</g>
		<g>
			<g>
				<path class="st2" d="M16.9,68.3c-0.8,0.2-1.6,0.1-2.3-0.2c-0.7-0.3-1.3-0.8-1.8-1.4l-0.3-0.4c0-0.1,0-0.2,0-0.2
					c0-0.1,0.1-0.2,0.1-0.2l2-1.5c0.1,0,0.2,0,0.2,0c0.1,0,0.2,0.1,0.2,0.1l0.2,0.3c0.3,0.4,0.7,0.7,1.2,0.7c0.5,0,1-0.1,1.6-0.5
					c0.4-0.3,0.7-0.7,0.7-1.1c0.1-0.4,0-0.8-0.3-1.2c-0.2-0.3-0.4-0.5-0.7-0.6c-0.3-0.1-0.7-0.1-1,0c-0.4,0-1,0.1-1.8,0.2
					c-1,0.1-1.8,0.2-2.4,0.2c-0.7,0-1.3-0.1-2-0.3c-0.6-0.2-1.2-0.8-1.7-1.4C8.3,60.2,8,59.5,8,58.8c-0.1-0.7,0.1-1.4,0.5-2.1
					c0.4-0.7,0.9-1.4,1.6-1.9c0.8-0.6,1.5-0.9,2.4-1.1c0.8-0.1,1.6-0.1,2.3,0.2s1.3,0.8,1.8,1.5l0.3,0.4c0,0.1,0,0.2,0,0.2
					c0-0.1-0.1,0-0.1,0.1l-2,1.5c-0.1,0-0.2,0-0.2,0c-0.1,0-0.2-0.1-0.2-0.1l-0.2-0.3c-0.3-0.4-0.7-0.7-1.2-0.8
					c-0.4-0.1-1,0.1-1.5,0.4c-0.4,0.3-0.7,0.7-0.8,1.1c-0.1,0.4,0,0.8,0.3,1.2c0.2,0.3,0.4,0.5,0.7,0.6c0.3,0.1,0.7,0.1,1,0.1
					s1.1-0.1,1.8-0.3l0.5-0.1c1-0.1,1.7-0.2,2.3-0.2c0.6,0,1.2,0.1,1.7,0.3c0.6,0.3,1.1,0.7,1.5,1.2c0.8,1.1,1,2.2,0.8,3.3
					c-0.2,1.1-0.9,2.1-2.1,3C18.5,67.8,17.7,68.2,16.9,68.3z"/>
				<path class="st2" d="M17.2,52.6c-0.4-0.1-0.8-0.3-1.1-0.7c-0.3-0.4-0.4-0.8-0.4-1.3c0.1-0.4,0.3-0.8,0.7-1.1s0.8-0.4,1.3-0.4
					c0.4,0.1,0.8,0.3,1.1,0.7c0.3,0.4,0.4,0.8,0.4,1.3S19,52,18.5,52.3C18.1,52.6,17.7,52.7,17.2,52.6z M24.6,63.1
					c-0.1,0-0.2-0.1-0.2-0.1l-6.3-8.6c0-0.1,0-0.2,0-0.2c0-0.1,0.1-0.2,0.1-0.2l2-1.5c0.1,0,0.2,0,0.2,0c0.1,0,0.2,0.1,0.2,0.1
					l6.2,8.5c0,0.1,0,0.2,0,0.2c0,0.1-0.1,0.2-0.1,0.2l-2,1.5C24.7,63.1,24.6,63.1,24.6,63.1z"/>
				<path class="st2" d="M32.5,50.3l0.4,0.7c0.1,0.1,0.1,0.2-0.1,0.3l-4.6,3.4c-0.1,0-0.1,0.2,0,0.2c0.2,0.2,0.4,0.4,0.5,0.5
					c0.3,0.3,0.6,0.4,1,0.4c0.3,0.1,0.7-0.1,1-0.3c0.6-0.4,0.8-0.9,0.6-1.6c0-0.2,0-0.3,0.2-0.3l2.1-1c0.2,0,0.3,0,0.3,0.2
					c0.3,0.9,0.3,1.8,0,2.7c-0.2,0.9-0.9,1.6-1.7,2.2c-1,0.7-2.1,1.1-3,1.1s-1.8-0.4-2.7-1.1c-0.4-0.3-1-1.1-1.7-2.1
					c-0.4-0.6-0.7-1.1-0.9-1.5c-0.5-1-0.6-1.9-0.4-3c0.3-1,0.9-1.9,1.9-2.6c1.1-0.8,2.1-1.1,3.2-1c1.1,0.1,2,0.7,2.8,1.6
					C31.8,49.4,32.2,49.9,32.5,50.3z M26.5,51.5c-0.1,0.3,0,0.7,0.2,1c0.1,0.2,0.3,0.5,0.4,0.7c0,0.1,0.2,0.1,0.2,0l2.3-1.7
					c0.1,0,0.1-0.2,0-0.2c-0.2-0.3-0.4-0.4-0.6-0.6c-0.3-0.3-0.6-0.4-0.9-0.5c-0.5,0-0.8,0.1-1.1,0.3C26.7,50.9,26.5,51.1,26.5,51.5
					z"/>
				<path class="st2" d="M35.8,41.3c0.2,0,0.2,0,0.3,0.2l1.1,2.3c0.1,0.1,0,0.3-0.2,0.3c-0.2,0.1-0.4,0.2-0.6,0.3
					c-0.1,0.1-0.3,0.2-0.4,0.4c-0.3,0.3-0.5,0.7-0.5,1.1c0,0.4,0,0.8,0.4,1.3l3.5,4.7c0,0.1,0,0.2,0,0.2c0,0.1-0.1,0.2-0.1,0.2
					l-2,1.5c-0.1,0-0.2,0-0.2,0c-0.1,0-0.2-0.1-0.2-0.1l-6.2-8.5c0-0.1,0-0.2,0-0.2c0-0.1,0.1-0.2,0.1-0.2l2-1.4c0.1,0,0.2,0,0.2,0
					c0.1,0,0.2,0.1,0.2,0.1l0.5,0.7c0,0.1,0,0.1,0.1,0c0.1,0,0.1,0,0-0.1c-0.1-1,0.2-1.8,0.9-2.3C35.1,41.5,35.5,41.4,35.8,41.3z"/>
				<path class="st2" d="M41.9,36.8c0.2,0,0.2,0,0.3,0.2l1.1,2.3c0.1,0.1,0,0.3-0.2,0.3c-0.2,0.1-0.4,0.2-0.6,0.3s-0.3,0.2-0.4,0.4
					c-0.3,0.3-0.5,0.7-0.5,1.1c0,0.4,0,0.8,0.4,1.3l3.5,4.7c0,0.1,0,0.2,0,0.2c0,0.1-0.1,0.2-0.1,0.2l-2,1.5c-0.1,0-0.2,0-0.2,0
					c-0.1,0-0.2-0.1-0.2-0.1L37,40.7c0-0.1,0-0.2,0-0.2c0-0.1,0.1-0.2,0.1-0.2l2-1.5c0.1,0,0.2,0,0.2,0c0.1,0,0.2,0.1,0.2,0.1
					l0.5,0.7c0,0.1,0,0.1,0.1,0c0.1,0,0.1,0,0-0.1c-0.1-1,0.2-1.8,0.9-2.3C41.3,37,41.6,37,41.9,36.8z"/>
				<path class="st2" d="M48.3,32.5c0.8-0.2,1.4-0.2,2,0.2c0.6,0.2,1.1,0.6,1.5,1.2l4.3,5.9c0,0.1,0,0.2,0,0.2
					c0,0.1-0.1,0.2-0.1,0.2l-2,1.5c-0.1,0-0.2,0-0.2,0c-0.1,0-0.2-0.1-0.2-0.1L53.5,41c0-0.1,0-0.1-0.1,0c-0.1,0-0.1,0,0,0.1
					c0,0.9-0.5,1.7-1.4,2.4c-0.8,0.6-1.6,0.9-2.4,0.9c-0.8-0.1-1.6-0.5-2.3-1.4c-1.4-1.9-0.9-3.7,1.5-5.4l1.3-0.9
					c0.1,0,0.1-0.2,0-0.2l-0.3-0.4c-0.3-0.4-0.6-0.5-0.9-0.6c-0.3-0.1-0.7,0.1-1.1,0.3c-0.3,0.2-0.5,0.4-0.6,0.7
					c-0.1,0.3-0.1,0.5,0,0.8c0,0.2,0,0.3-0.1,0.4l-2.2,1.4c-0.1,0-0.1,0.1-0.2,0s-0.1,0-0.2-0.1c-0.5-0.9-0.6-1.8-0.4-2.7
					c0.3-1,0.9-1.8,1.9-2.6C46.9,32.9,47.6,32.6,48.3,32.5z M52,39.9c0.1-0.4,0.1-0.8-0.2-1.2L51.2,38c0-0.1-0.2-0.1-0.2,0l-1,0.7
					c-0.4,0.3-0.7,0.7-0.8,1c-0.2,0.3-0.1,0.7,0.2,1.1c0.2,0.3,0.5,0.4,0.8,0.5c0.3,0.1,0.6-0.1,0.9-0.3
					C51.7,40.7,51.9,40.4,52,39.9z"/>
				<path class="st1" d="M54.1,32.6c-0.4-0.1-0.9-0.3-1.2-0.8c-0.3-0.4-0.4-0.8-0.3-1.4c0.1-0.5,0.4-0.9,0.8-1.2
					c0.4-0.3,0.8-0.4,1.4-0.3c0.5,0.1,0.9,0.3,1.2,0.8s0.4,0.8,0.3,1.4c-0.1,0.5-0.4,0.9-0.8,1.2C55.1,32.5,54.6,32.6,54.1,32.6z
					 M59.3,40.3c-0.1,0-0.2-0.1-0.2-0.1l-2.5-4.3c0-0.2,0-0.3,0.1-0.3l1.8-1.3c0.2-0.1,0.2-0.1,0.3,0.1l2,4.6c0,0.2,0,0.3-0.1,0.3
					l-1.3,0.9C59.4,40.3,59.3,40.3,59.3,40.3z"/>
			</g>
		</g>
		<g>
			<path class="st2" d="M23.8,67.1l6.2-4.5l0.8,1.1l-4.9,3.6l2.7,3.7l4.6-3.4l0.8,1.1l-4.6,3.4l3.5,4.8l-1.3,0.9
				C31.6,77.9,23.8,67.1,23.8,67.1z"/>
			<path class="st2" d="M39.2,72.3l-0.7-1l2.1-1.5l-4.1-5.6l-2.1,1.5l-0.7-1l2.9-2.1l1,0.8l0.1,0c0.1-0.6,0.3-1.1,0.5-1.7
				c0.3-0.5,0.7-1.1,1.3-1.5c0.4-0.3,0.7-0.4,1-0.4s0.6,0,0.9,0.2c0.3,0.2,0.6,0.4,0.9,0.8c0.3,0.3,0.6,0.7,1,1.2l-1.1,0.8
				c-0.5-0.6-0.9-1.1-1.3-1.3c-0.4-0.2-0.7-0.2-1,0.1c-0.3,0.2-0.5,0.5-0.7,0.7c-0.2,0.2-0.4,0.6-0.4,0.9c-0.1,0.3-0.2,0.5-0.2,0.7
				c0,0.2-0.1,0.4,0,0.6l3.3,4.5l3-2.2l0.7,1L39.2,72.3L39.2,72.3z"/>
			<path class="st2" d="M44.9,62.4c-0.9-1.3-1.3-2.4-1.2-3.7c0.1-1.3,0.8-2.2,2-3.1c0.6-0.5,1.3-0.8,1.9-0.9s1.2-0.1,1.7,0
				c0.6,0.1,1.1,0.4,1.6,0.8c0.6,0.4,0.9,0.9,1.3,1.4c0.5,0.6,0.8,1.2,0.9,1.8c0.2,0.6,0.3,1.2,0.2,1.8c0,0.6-0.2,1.1-0.5,1.7
				c-0.3,0.5-0.8,1-1.4,1.4c-0.6,0.5-1.3,0.8-1.9,0.9s-1.2,0.2-1.8,0.1c-0.6-0.1-1.1-0.4-1.6-0.8C45.7,63.4,45.2,62.9,44.9,62.4z
				 M46.1,61.4c0.3,0.4,0.6,0.6,0.9,1c0.3,0.3,0.8,0.5,1.2,0.7c0.4,0.1,0.8,0.2,1.3,0.1c0.5,0,0.9-0.3,1.3-0.6
				c0.8-0.6,1.3-1.3,1.3-2.1c0.1-0.8-0.3-1.7-1-2.7c-0.3-0.4-0.6-0.7-0.9-1c-0.4-0.3-0.8-0.5-1.1-0.6c-0.4-0.1-0.8-0.2-1.3-0.1
				c-0.5,0-0.9,0.3-1.3,0.6c-0.8,0.6-1.3,1.3-1.3,2.1C45,59.5,45.4,60.4,46.1,61.4z"/>
			<path class="st2" d="M53,54.6c-0.1-0.1-0.1-0.2-0.3-0.4s-0.2-0.3-0.4-0.4c-0.1-0.1-0.3-0.3-0.4-0.4c-0.1-0.1-0.2-0.2-0.3-0.3
				l-1,0.7l-0.7-1l2.1-1.5l1,1.2l0.1,0c0-0.3,0-0.6,0.1-0.8c0.1-0.3,0.1-0.6,0.2-0.9c0.1-0.3,0.3-0.6,0.5-0.9s0.5-0.5,0.8-0.8
				c0.4-0.3,0.9-0.6,1.4-0.8c0.5-0.2,0.9-0.3,1.4-0.1c0.4,0.1,0.9,0.3,1.4,0.7c0.4,0.3,0.9,0.9,1.4,1.6l3.2,4.4l-1.2,0.9l-3.1-4.3
				c-0.6-0.8-1.2-1.4-1.8-1.6c-0.6-0.2-1.2-0.1-2,0.5c-0.3,0.2-0.5,0.4-0.6,0.7s-0.3,0.6-0.4,0.9c-0.1,0.3-0.1,0.7-0.1,0.9
				c0.1,0.3,0.1,0.6,0.2,1l3.5,4.8l-1.2,0.9L53,54.6L53,54.6z"/>
			<path class="st2" d="M58.6,46.4l1.8-1.3l-1.1-1.5l0.9-1.3l1.4,1.9l4.1-3l0.7,1l-4.1,3l2.7,3.7c0.6,0.8,1.2,1.2,1.7,1.3
				c0.7,0.1,1.3-0.1,1.9-0.6c0.4-0.3,0.7-0.7,1-1.1c0.2-0.5,0.4-0.9,0.5-1.3l1.1,0.7c-0.2,0.5-0.4,1.1-0.8,1.6s-0.8,1-1.3,1.4
				c-0.4,0.3-0.9,0.5-1.3,0.6c-0.4,0.1-0.9,0.3-1.4,0.1c-0.5-0.1-0.9-0.2-1.4-0.4c-0.5-0.2-0.9-0.6-1.3-1.2l-2.8-3.8l-1.8,1.3
				L58.6,46.4L58.6,46.4z"/>
		</g>
	</g>
</g>
</svg>
