<?xml version="1.0" encoding="utf-8"?>
<!-- Generator: Adobe Illustrator 22.0.1, SVG Export Plug-In . SVG Version: 6.00 Build 0)  -->
<svg version="1.1" id="Capa_1" xmlns="http://www.w3.org/2000/svg" xmlns:xlink="http://www.w3.org/1999/xlink" x="0px" y="0px"
	 viewBox="0 0 768 908" style="enable-background:new 0 0 768 908;" xml:space="preserve">
<style type="text/css">
	.st0{fill:#FFC648;}
</style>
<g>
	<g>
		<path class="st0" d="M238.3,6.9C153,6.9,101.9,43,101.9,126.7c0,21.1,1.8,44.8,4.4,67.8c2.7,23.8,4.5,46.6,4.5,66.9
			c0,24.7-5.3,54.6-65.2,58.2V397c60,3.5,65.2,34.3,65.2,58c0,20.2-1.8,43.2-3.6,66.9c-3.5,23.8-5.3,46.8-5.3,67.9
			c0,87.1,54.6,119.7,136.5,119.7h4.2c-12.8-9.9-21.1-25.2-21.1-42.7c0-18.4,9.4-34.8,23.6-44.5c-24.6-6-32.2-26.3-32.2-55.5
			c0-13.2,1.8-27.3,3.5-44.1c1.8-16.7,3.6-36,3.6-58.9c0.9-70.5-27.3-94.2-80.2-104.8v-1.8c53.8-10.5,81.1-35.2,80.2-105.6
			c0-22-1.8-41.4-3.6-58.2c-1.7-16.7-3.5-30.7-3.5-43.9c0-34.3,12.3-56.4,46.6-56.4h15.9V6.9H238.3z"/>
	</g>
	<g>
		<path class="st0" d="M657.3,261.3c0-20.2,1.8-43,3.6-66.9c3.5-23.8,5.3-46.6,5.3-67.8c0-87.1-54.6-119.8-136.5-119.8h-37v85.5
			h15.9c36.1,0.9,46.6,22.9,46.6,57.3c0,13.2-1.8,27.3-3.5,43.9c-1.8,16.8-3.6,36.1-3.6,59.1c-0.9,70.3,27.3,94.2,80.1,104.7v1.8
			c-53.7,10.6-81,35.2-80.1,105.7c0,22,1.8,41.4,3.6,58c1.7,16.8,3.5,30.9,3.5,44.1c0,33.1-11.4,54.8-43,56.2
			c13.7,9.7,22.7,25.6,22.7,43.7c0,17.4-8.3,32.8-21.3,42.7h16.1c85.3,0,136.5-36.1,136.5-119.7c0-21.1-1.8-45-4.4-67.9
			c-2.7-23.7-4.5-46.6-4.5-66.9c0-24.6,5.3-54.6,65.2-58v-77.5C662.5,315.9,657.3,285.1,657.3,261.3z"/>
	</g>
	<path class="st0" d="M481.1,709.5H275c-23.6,0-42.7-19.1-42.7-42.7l0,0c0-23.6,19.1-42.7,42.7-42.7h206.2
		c23.6,0,42.7,19.1,42.7,42.7l0,0C523.9,690.4,504.7,709.5,481.1,709.5z"/>
	<path class="st0" d="M457.3,816.6H310.7c-19.6,0-35.4-15.9-35.4-35.4l0,0c0-19.6,15.9-35.4,35.4-35.4h146.5
		c19.6,0,35.4,15.9,35.4,35.4l0,0C492.7,800.8,476.8,816.6,457.3,816.6z"/>
	<path class="st0" d="M413.4,904.9h-65.3c-15.6,0-28.2-12.6-28.2-28.2l0,0c0-15.6,12.6-28.2,28.2-28.2h65.3
		c15.6,0,28.2,12.6,28.2,28.2l0,0C441.5,892.3,428.9,904.9,413.4,904.9z"/>
	<g>
		<path class="st0" d="M279,540.6c-1.2-1.1-1.7-2.5-1.7-4.2V203.7c0-1.6,0.6-3,1.7-4.2c1.1-1.1,2.5-1.7,4.2-1.7H389
			c22,0,41.4,4.1,58.3,12.3s29.9,19.9,39.1,34.9c9.2,15.1,13.8,32.7,13.8,52.7v144.7c0,20-4.6,37.6-13.8,52.7
			c-9.2,15.1-22.2,26.7-39.1,34.9S411,542.3,389,542.3H283.2C281.5,542.3,280.1,541.8,279,540.6z M349.1,482.8l40.4-0.5
			c12.1,0,22-4.3,29.5-13s11.5-20.3,11.8-34.7v-129c0-14.8-3.8-26.5-11.3-35.2c-7.6-8.7-17.6-13-30-13h-40.4c-1.6,0-2.5,0.8-2.5,2.5
			v220.5C346.7,482,347.5,482.8,349.1,482.8z"/>
	</g>
</g>
</svg>
